<svg xmlns="http://www.w3.org/2000/svg" viewBox="0 0 320 180"><defs><style>.cls-1{fill:#fefefe;fill-rule:evenodd;}</style></defs><g id="Layer_1" data-name="Layer 1"><g id="Logo_Customers_Casumo" data-name="Logo/Customers/Casumo"><path id="Path" class="cls-1" d="M128.4974,101.6624c0,.661-.4062.8355-.4062,2.0725,0,1.8545,1.18,3.8191,4.9758,3.8191,2.4557,0,4.3836-1.143,4.3836-3.1971,0-2.7748-2.8321-3.7181-5.6413-5.2925-2.7725-1.5538-5.5221-3.7181-5.5221-8.8545,0-5.97,5.4165-9.5637,12.9329-9.566a12.8236,12.8236,0,0,1,7.5463,1.9967,11.0531,11.0531,0,0,1,10.0824-5.9351c6.968,0,10.0182,4.4089,10.0182,8.0627,0,5.164-5.6024,13.8854-5.6024,18.6018a1.6467,1.6467,0,0,0,1.7213,1.6617c5.125,0,10.6493-13.2818,10.9408-22.7055a1.5721,1.5721,0,0,1,1.1934-1.501,7.1935,7.1935,0,0,1,1.7443-.1836c2.8643,0,5.9145,1.5676,5.8824,5.6781-.0574,7.37-5.2489,13.95-5.2489,17.53,0,.93.8239,1.9279,2.419,1.9279,5.366,0,9.5132-12.5129,9.5132-22.3658,0-1.0213,1.0626-1.8269,3.5345-1.8269,3.259,0,5.5174,1.882,5.32,6.8532.2662-.3971,4.5214-7.7942,11.0349-7.7942,4.2574,0,6.0521,2.6646,6.0521,6.0728a11.2474,11.2474,0,0,1,10.1054-6.0728c4.2551,0,6.5823,2.559,6.5846,6.7361,0,6.564-5.9856,13.7064-5.9856,16.9539a1.3983,1.3983,0,0,0,1.5974,1.462c2.2056,0,5.4165-2.0082,6.564-5.1112.879-2.3823,3.5482-9.2378,8.9876-9.2378,1.8636,0,2.2974.7735,2.2974,1.5286,0,1.602-1.7121,2.0725-1.7121,7.7873,0,4.3033,1.3357,6.1669,3.461,6.1669,2.9744,0,7.4889-6.2174,7.4889-13.9473,0-3.3119-1.8935-6.4378-6.6558-6.4378-3.5482,0-4.441,1.0833-5.8755,1.0833a1.4192,1.4192,0,0,1-1.4459-1.439c0-2.2217,5.5519-5.545,11.87-5.545,9.24,0,11.7739,8.1155,11.7739,12.7676,0,11.8428-10.0021,21.2527-18.6432,21.2527-5.5334,0-8.4092-2.6164-9.8918-5.5312l-.0046.0069a17.691,17.691,0,0,1-12.43,5.5243c-4.7853,0-7.5119-2.1712-7.5119-6.4837,0-5.5082,5.747-14.3008,5.747-16.9539,0-.6633-.1354-.9938-.7345-.9938-4.9987,0-11.4525,13.2267-12.4234,21.8724a2.8592,2.8592,0,0,1-3.0708,2.559,5.5786,5.5786,0,0,1-5.91-5.8869c0-5.5725,5.9787-14.9641,5.9764-17.553,0-.5967-.2-.9915-.8629-.9915-2.9217,0-6.1463,4.65-8.5011,10.2385a46.0987,46.0987,0,0,0-3.243,11.6247,2.874,2.874,0,0,1-3.0823,2.57,5.7645,5.7645,0,0,1-5.63-3.6584c-2.1826,1.8774-4.8885,3.6561-7.8492,3.6561-5.4555,0-7.4132-2.5866-7.6152-5.3728a11.733,11.733,0,0,1-10.1581,5.3728c-3.5138,0-6.9037-2.8849-6.9037-8.9853,0-6.8532,3.9453-11.946,5.4142-18.1749.4406-2.0932-1.2715-3.2889-3.1948-3.2889-2.46,0-3.6745,1.7052-3.6745,4.4731,0,2.97-1.6662,5.3293-5.6092,5.3293a1.4344,1.4344,0,0,1-1.4436-1.4414c0-.3833.1262-.78.1262-1.7672,0-2.4558-1.99-3.8512-4.4548-3.8512-2.2606,0-3.3233,1.1315-3.3233,2.8574,0,2.9446,3.0341,3.9591,6.0063,5.4348,2.8528,1.4161,5.646,3.2545,5.646,7.6267,0,7.5623-6.64,11.7876-14.8815,11.7876-4.2,0-7.264-.9226-9.0174-2.9515a10.8488,10.8488,0,0,1-7.56,2.9515c-6.0522,0-6.2679-5.2328-6.2679-5.2328s-2.846,5.2328-11.4251,5.2328c-7.0253,0-8.524-5.5381-8.524-5.5381-3.5115,3.1122-8.781,5.5381-16.0083,5.5381-11.8152,0-17.92-7.2342-17.92-18.3448,0-11.8588,10.2591-31.2593,26.3317-31.2593,8.625,0,13.0454,5.0722,13.0454,10.7388A10.9086,10.9086,0,0,1,84.0183,86.7076c-3.6193,0-4.6131-1.2417-4.6131-2.1115,0-1.6387,4.1335-2.6509,4.1335-7.264,0-2.3984-1.5194-4.1083-3.64-4.1083-5.9122,0-13.8027,11.9-13.8027,21.5051,0,7.78,3.5528,11.9346,10.4335,11.9346,4.1427,0,9.9883-3.0525,11.48-7.4339,2.2722-6.6833,7.6588-18.59,22.49-18.59,7.4316,0,10.03,4.1932,10.03,6.1a1.444,1.444,0,0,1-1.4459,1.439c-1.03,0-2.5085-1.2646-6.8853-1.2646a14.0811,14.0811,0,0,0-14.4821,14.1034c0,3.4656,1.2715,5.1388,3.3761,5.1388,4.2781,0,4.9184-3.7961,6.6237-9.3067.9433-3.05,3.1443-5.4,6.64-5.4,3.4656,0,3.4427,1.5263,3.4381,1.77a4.444,4.444,0,0,1-.59,1.7764,19.9293,19.9293,0,0,0-1.7856,7.4109c0,1.4642.5761,3.7088,3.1742,3.7088,3.5344,0,3.5872-5.8938,8.46-5.8938a1.4218,1.4218,0,0,1,1.4459,1.4413"/></g></g></svg>