<svg xmlns="http://www.w3.org/2000/svg" viewBox="0 0 320 180"><defs><style>.cls-1{fill:#fefefe;}</style></defs><g id="Layer_1" data-name="Layer 1"><path class="cls-1" d="M140.168,65.465a3.6331,3.6331,0,0,0-1.7491,1.8267c-.1943.5442-.2332.894-.2332,3.809a20.2662,20.2662,0,0,0,.1555,3.809,3.6389,3.6389,0,0,0,1.5936,1.9045l.4664.2721,10.3387.0389,10.3388.0389L149.535,90.379c-6.3354,7.2682-11.66,13.4092-11.8157,13.6424-.5052.8163-.5441,1.0106-.5441,4.703v3.4592l.3109.583a3.4329,3.4329,0,0,0,1.5936,1.5547c.4664.1943,1.2438.2332,18.9673.2332,17.84,0,18.5009,0,18.9673-.2332a3.4911,3.4911,0,0,0,1.6713-1.6713c.272-.583.272-.6607.272-4.0811V105.11l-.3109-.6607a3.1855,3.1855,0,0,0-1.5158-1.5159l-.4664-.272-10.844-.0389-10.844-.0389L166.5589,89.33c6.3743-7.3071,11.738-13.487,11.8935-13.7591.5052-.7385.583-1.5158.5441-4.8584-.0389-2.76-.0389-3.0706-.2721-3.537a3.5786,3.5786,0,0,0-1.4381-1.5935l-.5441-.311-17.9567-.0388c-17.9956-.0389-18.0734-.0389-18.6175.2332Zm-94.1758,0c-10.1055,1.2437-18.2288,7.618-21.2216,16.6741a24.6,24.6,0,0,0,8.3954,27.44,26.9151,26.9151,0,0,0,27.79,2.4486c1.2437-.583,1.6713-.9717,1.9822-1.6713a2.8,2.8,0,0,0-.0777-1.9433,76.6426,76.6426,0,0,0-4.703-6.8018,2.431,2.431,0,0,0-.8939-.2721c-.5442-.0389-.7,0-1.5547.4664a13.1266,13.1266,0,0,1-15.6636-2.1766A12.9952,12.9952,0,0,1,38.53,82.0613a14.14,14.14,0,0,1,7.4237-5.0527,9.056,9.056,0,0,1,3.3037-.311,7.1912,7.1912,0,0,1,3.1094.35,13.3652,13.3652,0,0,1,2.915,1.36,2.95,2.95,0,0,0,1.5547.583,1.8046,1.8046,0,0,0,1.477-.6219c.4275-.4664,4.5475-6.53,4.6641-6.8406a3.2469,3.2469,0,0,0-.0389-1.8268c-.35-.8551-1.36-1.5158-4.0033-2.5264a29.0828,29.0828,0,0,0-5.3637-1.4769,20.4966,20.4966,0,0,0-4.0422-.2721,24.2153,24.2153,0,0,0-3.537.0389Zm164.37,0A25.3806,25.3806,0,0,0,199.13,69.3517,24.8451,24.8451,0,0,0,188.1692,86.259a31.8814,31.8814,0,0,0,.0778,7.929,23.9149,23.9149,0,0,0,3.809,9.5614A24.4033,24.4033,0,0,0,208.4192,114.36a31.8637,31.8637,0,0,0,7.9289.0777,25.5819,25.5819,0,0,0,7.4237-2.41A24.6856,24.6856,0,0,0,236.9867,93.605a31.43,31.43,0,0,0,0-7.1516,24.7813,24.7813,0,0,0-20.7552-20.7941,27.0554,27.0554,0,0,0-5.869-.1943Zm5.0528,12.5541a12.5891,12.5891,0,0,1,9.1338,9.1339,13.013,13.013,0,0,1,.1166,5.2082,11.8665,11.8665,0,0,1-3.1482,6.0633A12.2934,12.2934,0,0,1,201.423,84.7821a10.5227,10.5227,0,0,1,2.6041-3.5758,11.9382,11.9382,0,0,1,6.1022-3.3038,15.0644,15.0644,0,0,1,5.286.1166Zm54.8808-12.6319a24.1733,24.1733,0,0,0-6.18,1.2438,24.721,24.721,0,0,0-16.713,20.5608,35.1483,35.1483,0,0,0,.0388,6.0634,24.6678,24.6678,0,0,0,48.8952.0777,34.13,34.13,0,0,0,.0389-6.2965,24.7577,24.7577,0,0,0-8.5509-15.8579,24.1724,24.1724,0,0,0-12.36-5.5581A34.6057,34.6057,0,0,0,270.2961,65.3872Zm3.6924,12.4765a12.3249,12.3249,0,1,1-13.1761,17.49A12.1984,12.1984,0,0,1,268.0417,78.33a11.9261,11.9261,0,0,1,5.9468-.4664ZM90.3788,65.6593a10.17,10.17,0,0,0-6.2576,4.1977,20.1169,20.1169,0,0,0-1.7491,3.226c-.0777.2332-.8551,1.9045-1.71,3.77-.8551,1.8268-1.9045,4.12-2.3321,5.0916-.4275.9329-.9328,2.06-1.1271,2.41l-.35.7-.0778-.5052a1.9394,1.9394,0,0,0-1.5158-1.8657,25.356,25.356,0,0,0-6.0633.894c-.2332.1554-.4276.6219-.8551,1.8267-.4664,1.36-.5441,1.6713-.4664,2.0211.1943.7385.4275.8163,3.6147,1.2049l2.915.35-.2332.2332a4.0705,4.0705,0,0,0-.4664.7385c-.583,1.1272-.583,1.3215-.583,12.0489,0,11.1161-.0389,10.6108.7773,11.5436a4.2318,4.2318,0,0,0,1.0106.8163l.583.3109,3.4592.0389c3.8479.0388,4.2754,0,5.1694-.7A3.6843,3.6843,0,0,0,84.9763,113l.35-.6219.0388-4.0422c.0389-3.9256.0389-4.0422.2721-4.2365s1.0494-.1944,13.6036-.1944c11.6991,0,13.4093.0389,13.6036.1555.2332.1555.2332.2332.2721,4.1977.0388,3.9256.0388,4.0033.3109,4.5475a3.6828,3.6828,0,0,0,1.6324,1.6324c.5053.2332.7385.2332,3.9645.2721,4.0033.0388,4.3143,0,5.2471-.8551,1.0106-.9328,1.0106-.9328,1.1272-6.0633.0388-2.4487.0388-7.19-.0389-10.5331-.1166-6.6463-.1166-6.6852-.8162-7.7346-.1944-.2721-.311-.5053-.2721-.5442s1.3215-.1943,2.8762-.3886a26.6164,26.6164,0,0,0,3.0316-.4664,1.1794,1.1794,0,0,0,.4664-.9717,11.2416,11.2416,0,0,0-.5441-1.8657,5.7778,5.7778,0,0,0-.7773-1.749,43.3448,43.3448,0,0,0-5.7136-.8939,1.6359,1.6359,0,0,0-1.01.272,2.297,2.297,0,0,0-.894,1.5159,1.199,1.199,0,0,1-.0777.4275c-.1166.1555-.3109-.2332-1.2049-2.2932-.3109-.7385-1.2826-2.8373-2.1377-4.6641-.8551-1.8656-1.8656-4.0422-2.2154-4.8973-1.7491-4.0033-3.8868-6.1021-7.2294-7.1516l-1.0494-.3109-8.2788-.0389c-7.5013-.0388-8.24-.0388-9.1338.1555Zm14.6919,12.01a2.67,2.67,0,0,1,.5441.7774c.8163,1.9045,5.0139,12.5541,5.0528,12.8262l.0389.35-11.31.0389c-8.3954,0-11.3493,0-11.3882-.1166-.1166-.1943-.0777-.2721,2.3321-6.3354,1.2437-3.07,2.332-5.869,2.4486-6.18a2.4876,2.4876,0,0,1,.894-1.3992c.1943-.1166,1.5158-.1555,5.7135-.1555,5.13,0,5.4025,0,5.6746.1943Z"/></g></svg>