<svg xmlns="http://www.w3.org/2000/svg" viewBox="0 0 320 180"><defs><style>.cls-1,.cls-2{fill:#fefefe;fill-rule:evenodd;}.cls-1{fill-opacity:0.9;}</style></defs><g id="Layer_1" data-name="Layer 1"><path id="Halo" class="cls-1" d="M51.2179,56.4747A35.256,35.256,0,1,1,16,91.7687,35.3195,35.3195,0,0,1,51.2179,56.4747ZM116.025,68.8733v15.365h-4.716v9.9645h8.9a16.8209,16.8209,0,0,1,16.6582-13.7677c5.4766,0,10.1166,2.13,13.0831,5.857a17.5237,17.5237,0,0,1,13.3874-5.857H164.63V68.8733h45.7909V80.5872h.5324c5.3246,0,9.8885,1.9777,12.855,5.5527a15.7918,15.7918,0,0,1,12.0182-5.5527,13.7056,13.7056,0,0,1,3.499.38h17.3427v.6845a18.3023,18.3023,0,0,1,6.6937-1.217c6.77,0,10.4209,2.7383,12.3225,5.0963a4.8812,4.8812,0,0,1,.7606.9889c2.282-3.499,6.6177-6.0852,12.7789-6.0852,3.6511,0,8.5953,1.2931,11.4858,4.1836a9.1454,9.1454,0,0,1,2.7383,6.5415,8.5758,8.5758,0,0,1-1.5213,4.8682,9.282,9.282,0,0,1,2.0538,6.3133c0,7.3022-6.3134,12.6268-14.9848,12.6268a21.307,21.307,0,0,1-6.9219-1.141h0v.8367H263.6666a14.5335,14.5335,0,0,1-10.8012-1.4452,15.3511,15.3511,0,0,1-2.9665,6.6176c-2.8905,3.6511-7.3023,5.5527-12.7789,5.5527-5.1724,0-10.0405-1.6734-12.7789-4.4117a9.2779,9.2779,0,0,1-2.7383-6.5416,4.1532,4.1532,0,0,1,.0761-1.3692,23.3086,23.3086,0,0,1-9.66,1.9017c-7.0741,0-12.7789-3.2708-15.8215-8.4432h0l-3.4229,8.1389H182.5816l-3.6511-8.5192a17.3062,17.3062,0,0,1-15.5932,8.9756,18.2482,18.2482,0,0,1-11.8661-4.1836h0l-2.13,1.2931a22.8331,22.8331,0,0,1-11.5619,2.8144,19.1179,19.1179,0,0,1-10.7251-3.0426h0v2.6623H91.1519V99.3752h4.1075V84.1623H91.1519V68.8733ZM51.2179,61.4189l-.501.0041a30.3523,30.3523,0,1,0,.501-.0041Zm184.609,23.96c-6.3134,0-11.2576,5.3245-11.2576,12.17,0,7.074,4.8682,11.7139,10.9533,11.7139a9.0263,9.0263,0,0,0,6.9219-3.1186h0v3.4989a6.6165,6.6165,0,0,1-1.1409,4.1075,5.7328,5.7328,0,0,1-4.8682,2.0538,11.38,11.38,0,0,1-3.575-.6085,3.707,3.707,0,0,0,.076-.9128,3.1326,3.1326,0,0,0-3.1186-3.1187H229.59a3.28,3.28,0,0,0-3.1947,3.2708h0v.0757h0l.0023.14a4.2493,4.2493,0,0,0,1.3668,2.9786c1.5974,1.5974,5.2485,2.9665,9.356,2.9665,3.9554,0,6.9979-1.2931,8.9756-3.7271a11.686,11.686,0,0,0,2.282-7.2262h0V90.2474h3.4229V85.76h-9.1278v2.2059h-.0761A10.1664,10.1664,0,0,0,235.8269,85.3793ZM73.657,75.4148a32.3154,32.3154,0,0,1,1.9016,2.9666h0L66.8873,83.858l10.1166-2.2819c.38,1.0649.7606,2.2058,1.0649,3.3468h0l-13.2353,4.26,13.8438-.9888a25.8763,25.8763,0,0,1,.2282,3.4229h0l-13.8438.9888,13.6156,2.51a26.9306,26.9306,0,0,1-.6085,3.4229h0l-13.6156-2.51,12.4746,5.933a23.2042,23.2042,0,0,1-1.4452,3.1187h0L63.008,99.2231l10.649,8.7474c-.6846.9128-1.4452,1.8256-2.2059,2.6623h0l-9.8123-7.8347,7.3022,10.1927a24.1546,24.1546,0,0,1-2.8144,2.0537h0l-7.15-9.3559L63.16,116.794c-1.0649.4564-2.13.9128-3.2708,1.2931h0l-3.8032-7.53.5324,8.3671a28.7246,28.7246,0,0,1-3.575.4564h0l-1.6734-4.716-1.6734,4.716a27.5441,27.5441,0,0,1-3.499-.4564h0l.2282-7.9107-3.5751,7.074c-1.1409-.38-2.2058-.8367-3.2708-1.2931h0l3.5751-10.1166-6.5416,8.5193a24.164,24.164,0,0,1-2.8144-2.0538h0l8.0629-11.1815-10.6491,8.9c-.7606-.8367-1.5213-1.7495-2.2058-2.6623h0l10.649-8.9-12.5507,5.9331a23.6378,23.6378,0,0,1-1.5213-3.1187h0l12.6268-5.933L24.5192,98.8428a27.2605,27.2605,0,0,1-.6845-3.423h0l13.6916-2.6622-13.92-.9128V89.8671a9.315,9.315,0,0,1,.1521-1.4452h0l13.1592.7606L24.4432,85.075c.3042-1.1409.6846-2.2819,1.0649-3.3468h0l10.3448,2.358-8.9-5.5527,1.8256-3.0426,9.1277,4.1836a8.174,8.174,0,0,0-.38,3.0425c.0761,2.4341-.2282,3.9554.7606,5.02a40.3869,40.3869,0,0,1,3.1948,2.89c.1521.2282.2282.38.38.6085a1.3645,1.3645,0,0,1,.38.5324l.2282.4564c.5325-.9888,1.6734-1.5213,1.9016-1.2931s-.6846.9128-1.5213,3.0426a9.3426,9.3426,0,0,0-.3993,1.0187l-.1141.3291c-.0571.164-.1141.3256-.1712.4778a6.9485,6.9485,0,0,0-.3042,3.0426,13.8627,13.8627,0,0,0,2.2059,5.0963c.4564.5324,1.5973.2282,2.51,0a8.2178,8.2178,0,0,0,3.1187-1.9016,2.8885,2.8885,0,0,0,.9127-2.51,4.1909,4.1909,0,0,0-1.6734-2.434,8.9956,8.9956,0,0,1-2.13-1.6735c-.1521-.2282-.38-.6085-.6085-.9127-.2282-.38-.38-.6086-.2282-.6846.076-.0761.3042-.0761.5324.1521s.38.5325.4564.4564c.0761-.1521,0-.0761,0-.3043.1522-.3042.3043-.5324.6085-.6085.7607-.38,2.2059.5325,3.7272.5325s3.4229-1.3692,4.0314-.8367a.9353.9353,0,0,1,.5325.8367.0745.0745,0,0,0,.0761.076,1.6559,1.6559,0,0,0,.6845-.5324c.1522-.1521.3043-.2282.4564-.1521s.0761.4563,0,.6845a1.47,1.47,0,0,1-.38.6846c-.38.38-1.3692.4564-2.6623,1.5974a5.4525,5.4525,0,0,0-2.0537,2.9665,3.59,3.59,0,0,0,.7606,2.2819,3.5416,3.5416,0,0,0,2.51,1.2931c1.1409.1522,3.3468-.2282,3.9553-.8367a5.2075,5.2075,0,0,0,1.5974-2.89A8.667,8.667,0,0,0,60.65,95.04c-.6846-2.13-1.7495-3.3468-1.4453-3.575.38-.2282.9128.4564,1.3692.8367a13.4219,13.4219,0,0,1,.3043-1.5213,3.0466,3.0466,0,0,1,1.6734-2.0538c1.141-.6845,2.89-1.6734,3.0426-2.8143a14.863,14.863,0,0,0,.076-4.1075c-.1521-.4564-.3042-1.2171-.4564-1.8256h0ZM51.9786,103.1024a1.0343,1.0343,0,0,0-1.2931.076,13.0167,13.0167,0,0,1-5.3245,2.8905c-.38.0761-.5325.6085-.3043,1.0649a9.4746,9.4746,0,0,0,2.13,2.7383,20.9221,20.9221,0,0,0,2.13,1.4453,13.211,13.211,0,0,1,1.9016,2.2058c.0761.0761.2282.1522.3043.0761l.0079-.0079.0414-.0414.0268-.0268a10.1224,10.1224,0,0,1,1.7495-2.2819c.8367-.6846,3.0425-1.9016,3.575-3.3469a11.4639,11.4639,0,0,1,.9128-1.9776c.38-.7607.1521-1.2171-.38-1.2171A9.8214,9.8214,0,0,1,51.9786,103.1024Zm211.46-17.7992c-6.5416,0-9.5081,3.1948-9.5081,6.1613a3.0558,3.0558,0,0,0,2.89,3.1947h.3043a3.0557,3.0557,0,0,0,3.1947-2.8905h0v-.2282c-.076-.38-.1521-.8367-.2282-1.217a8.0538,8.0538,0,0,1,2.358-.38,5.826,5.826,0,0,1,4.716,1.7495,4.9894,4.9894,0,0,1,.9128,3.2708h0v1.9776a32.37,32.37,0,0,0-6.0852-.6085c-5.7048,0-9.5841,2.8144-9.5841,7.2262s3.7272,6.6936,7.7586,6.6936a12.971,12.971,0,0,0,8.0629-3.1186h0v2.6623h9.0516v-4.4879h-3.4989V94.5831a8.96,8.96,0,0,0-1.8256-6.0091C270.36,86.52,267.3937,85.3032,263.4384,85.3032Zm-100.1772,0a12.3155,12.3155,0,0,0-12.7789,12.4746c0,6.6177,4.8682,12.4746,12.7789,12.4746,7.9868,0,12.7789-5.8569,12.7789-12.4746S171.1719,85.3032,163.2612,85.3032Zm-26.3944,0c-7.4544,0-12.17,5.7049-12.17,12.4746,0,7.3783,5.4006,12.3225,13.1592,12.3225a17.1182,17.1182,0,0,0,9.0517-2.13s-1.141-3.3468-1.5213-4.3357a18.55,18.55,0,0,1-6.6937,1.4453c-4.0314,0-6.9979-1.6735-7.8346-5.3246h17.2666a19.7913,19.7913,0,0,0,.38-2.9665C148.5047,90.4756,144.4732,85.3032,136.8668,85.3032Zm74.0869,0c-7.3782,0-12.17,5.7049-12.17,12.4746,0,7.3783,5.4006,12.3225,13.1592,12.3225a17.1182,17.1182,0,0,0,9.0517-2.13h0l-.0054-.0157c-.0847-.2483-1.1508-3.3707-1.5159-4.32a18.55,18.55,0,0,1-6.6937,1.4453c-4.0314,0-6.9979-1.6735-7.8347-5.3246h17.3428a13.1,13.1,0,0,0,.3043-2.9665c0-6.3134-4.0315-11.41-11.638-11.41h0Zm78.3467-.076c-6.6937,0-9.8124,3.8793-9.8124,7.6064,0,4.1836,2.7383,5.7049,9.356,7.4544,3.6511,1.0649,4.716,1.6734,4.716,2.89,0,1.7495-1.9777,2.5862-4.3357,2.5862a12.1168,12.1168,0,0,1-4.3357-.7606,5.02,5.02,0,0,0,.0761-1.0649,3.0559,3.0559,0,0,0-2.89-3.1947H281.77a3.1494,3.1494,0,0,0-3.1948,3.1186h0v.0761a4.306,4.306,0,0,0,1.3692,3.2708c1.5213,1.5213,5.5527,2.89,9.1278,2.89,5.4766,0,10.1166-2.6622,10.1926-7.7586,0-4.0314-3.2707-5.5527-9.0517-7.074-3.6511-1.0649-5.02-1.6734-5.02-3.1186,0-1.2171,1.3691-2.4341,4.0314-2.4341a8.5517,8.5517,0,0,1,3.4229.6085,5.02,5.02,0,0,0-.0761,1.0649,2.9389,2.9389,0,0,0,3.1947,2.9665,2.97,2.97,0,0,0,2.9666-2.9665h0V91.16a4.38,4.38,0,0,0-1.3692-3.1186C295.69,86.3681,292.1908,85.2272,289.3,85.2272Zm-178.22-11.41H96.02V79.37h4.1075v24.8731H96.02v5.5528h26.1663V99.147h-5.9331v5.1724h-9.8884V79.37h4.716Zm72.6418-.0761H169.4985v5.5527h3.2708l12.931,30.502h3.8032l13.0071-30.502h3.1186V73.7414H191.4051v5.5527h4.0315L187.678,99.0709l-7.7586-19.7768h3.8032ZM162.9569,95.42c1.2171,0,2.51.9889,3.1948,3.9554.5324,2.4341,2.2058,2.2819,2.2058,3.575,0,1.9017-1.217,3.6511-2.51,3.499s-2.8905-1.5213-4.4118-1.5213c-1.1409,0-3.0425.4564-4.1074.2282s-1.4453-1.9016-1.4453-3.4229,1.5974-2.89,2.9666-4.1075C159.99,96.7129,162.0442,95.42,162.9569,95.42Zm100.1012,3.9554a21.4071,21.4071,0,0,1,4.9442.5325h0v3.8032a10.2185,10.2185,0,0,1-6.0092,2.2059c-2.13,0-3.575-.9889-3.575-2.9666C258.4181,100.7444,260.1676,99.4513,263.0581,99.3752Zm-26.09-8.9a8.0956,8.0956,0,0,1,5.3245,1.8256h0v9.5081a7.8257,7.8257,0,0,1-5.3245,2.358c-3.7272,0-6.3895-2.358-6.3895-6.77C230.5784,92.91,233.2407,90.4756,236.9679,90.4756ZM171.1719,95.8a.339.339,0,0,1,.4564-.2282.2654.2654,0,0,1,.1521.076,6.332,6.332,0,0,1-.2282,4.1075,1.8417,1.8417,0,0,1-2.434.9889h-.0761a1.8888,1.8888,0,0,1-.3042-2.9666C169.3464,97.0172,170.7155,96.8651,171.1719,95.8ZM156.36,90.5778a.3331.3331,0,0,1,.4362-.1782q.2281.114.2282.2282c.6085,1.217,1.9777,1.4452,2.358,2.434a1.9323,1.9323,0,0,1-.8367,2.6623c-1.217.6846-2.0538-.5325-2.358-1.6734a7.41,7.41,0,0,1,.1521-3.4229h0Zm11.3895-.0261a.3658.3658,0,0,1,.4564-.1521.1635.1635,0,0,1,.1521.1521,6.9248,6.9248,0,0,1,.7607,3.0426c-.0761,1.141-.9128,2.4341-2.358,1.9777h0l-.0824-.04a1.8133,1.8133,0,0,1-.9065-2.1658.0745.0745,0,0,0,.0761-.0761C166.1517,92.3012,167.2166,91.6927,167.749,90.5517Zm43.1287-.38a5.3541,5.3541,0,0,1,5.7809,5.4766H205.0207C205.6292,91.6927,208.2915,90.1714,210.8777,90.1714Zm-74.2391,0c3.4989,0,5.7048,2.13,5.7809,5.4766H130.7816C131.39,91.6927,134.0524,90.1714,136.6386,90.1714Zm26.1662-1.3692a.3582.3582,0,0,1,.4564.0761.2793.2793,0,0,1,.0761.2282c.076,1.1409.9127,2.0537.8367,3.2708-.0761,1.0649-.6085,2.0537-1.5974,1.9776-1.4452-.076-1.9016-1.3691-1.5973-2.7383A6.2408,6.2408,0,0,1,162.8048,88.8022ZM43.9157,81.88c1.141.0761,3.0426.4564,3.1948,1.141a10.2337,10.2337,0,0,1,.38,2.6623c0,.38.2282.7606-.1522.9127s-.38-.3042-.6845-.4564c-.0761-.076-.5325.0761-.8368-.1521-.3042-.1521-.38-.6846-.9127-.9888a6.099,6.099,0,0,0-2.282-.6846,6.6563,6.6563,0,0,1-.7606-.6085s-.6085.2282-.8367,0-.2282-.38-.0761-.5325A5.3215,5.3215,0,0,1,43.9157,81.88Zm14.9848-.5324a4.811,4.811,0,0,1,3.1186,1.4452c.1522.0761.2282.3043-.076.5325h0l-.0478.0308a1.2848,1.2848,0,0,1-.865-.0308,12.4151,12.4151,0,0,1-1.2931,1.5213,37.6405,37.6405,0,0,1-3.8032,1.0649s-.38.6085-.7607.4563c-.5324-.1521,0-3.0425.3043-3.8032S57.6834,81.3479,58.9005,81.3479ZM40.4168,78.0771c.8367-1.0649,3.4989-1.0649,4.4878-.4564.4564.3043,1.7495,2.51,2.8144,2.8905,2.13.7606.9888,1.9016-.5325,1.7495-.9128-.1522-1.3692-1.2171-2.358-2.2059-1.5213-1.5213-3.1947-.3043-4.1835,0C39.96,80.2069,39.58,79.142,40.4168,78.0771Zm18.1794-.4564a5.8464,5.8464,0,0,1,2.282.2282A2.5787,2.5787,0,0,1,62.1713,79.37a5.0965,5.0965,0,0,1,.5324,2.358.2709.2709,0,0,1-.4564.2282c-.076-.1521-.6846-3.2708-3.6511-2.6623A9.881,9.881,0,0,0,54.6409,81.12c-.4564.3042-.7607-.6085-.5325-1.0649s.7606-.4564,1.2931-.9889A4.1014,4.1014,0,0,1,58.5962,77.6207Zm10.2687-7.2261c.9128.7606,1.7495,1.5973,2.5862,2.434h0L67.724,76.5558h0v-.2282c0-1.3692-.8367-2.13-1.9016-3.1186h0l-.0761-.1522Zm-35.37.1521,3.0426,2.8144.2282.2282a7.4857,7.4857,0,0,0-2.0538,2.8144h0l-3.8032-3.499Zm19.4725-6.4655.7607,7.8347L56.39,64.5376a18.7077,18.7077,0,0,1,3.4229.8367h0l-.6845,6.6937,3.8793-5.4006a23.6885,23.6885,0,0,1,3.0426,1.6734h0l-1.9017,3.6511c-1.0649-.5324-2.2058-.7606-2.6622,0-.7607,1.2171-1.5213,2.13-1.7495,2.0538a16.8121,16.8121,0,0,0-4.0314-.9128c-3.3469,0-4.26,2.2819-4.26,2.2819a6.368,6.368,0,0,0-4.64-2.2819c-2.89,0-3.8793.9128-3.8793.9128a10.2324,10.2324,0,0,0-1.2931-2.358c-.4564-.38-1.8256-.1522-3.1947.6085h0l-.0761-.1521-1.9777-3.6512.4564-.3042,1.9777-1.141.5325-.3042,3.9553,5.1724L42.6226,65.45c1.141-.3043,2.282-.6086,3.4229-.8368h0l2.6623,7.6826.7607-8.1389a12.8852,12.8852,0,0,1,1.7494-.0761Z"/><path id="Inner-Line" class="cls-2" d="M51.2179,59.2131a32.5557,32.5557,0,1,1-32.48,32.5556A32.4952,32.4952,0,0,1,51.2179,59.2131Zm61.8406,12.3985V81.5h-4.716v20.6135h5.5527V96.9411h8.4432c.4564-7.9107,6.3894-13.7677,14.3-13.7677,6.3133,0,11.1054,3.2708,12.931,8.4432a14.5273,14.5273,0,0,1,13.6155-8.4432,14.9155,14.9155,0,0,1,10.4209,3.8793h0l-2.358-5.4766h-4.0314V71.6877h18.56v9.8884h-2.8144L187.5258,93.29,192.09,81.5761h-3.0426V71.6877h18.56v9.8884h-3.8032L201.75,86.4442a14.6472,14.6472,0,0,1,9.1278-3.1947c6.1612,0,10.8012,3.1186,12.7789,8.0628A13.0036,13.0036,0,0,1,235.6748,83.25a12.6847,12.6847,0,0,1,4.716.9128h0V83.63h13.3874v2.8144c1.8255-1.9016,4.9442-3.2708,9.432-3.2708,5.7809,0,8.7474,2.2059,10.2687,4.1075a10.9461,10.9461,0,0,1,2.358,7.3022h0v8.6714h.6085a5.231,5.231,0,0,1,3.499-4.1836,7.2227,7.2227,0,0,1-2.7383-6.0851c0-6.4655,6.0091-9.8124,11.9421-9.8124,2.9665,0,7.2262,1.0649,9.5842,3.4229a6.3268,6.3268,0,0,1,1.9777,4.64,5.1332,5.1332,0,0,1-2.8144,4.7921,6.3813,6.3813,0,0,1,3.1186,6.3133c0,5.857-5.02,9.8884-12.2464,9.8884a17.9581,17.9581,0,0,1-9.66-2.6622h0v2.434H265.72v-.9127a12.9961,12.9961,0,0,1-5.857,1.3691c-5.02,0-8.7474-2.7383-9.66-6.77h0v3.9553a13.7433,13.7433,0,0,1-2.7383,8.5193c-2.358,2.9665-6.0091,4.5639-10.6491,4.5639-4.4117,0-8.6713-1.4453-10.8772-3.6511a6.3268,6.3268,0,0,1-1.9777-4.64,5.4541,5.4541,0,0,1,3.9554-5.2485,13.2877,13.2877,0,0,1-5.1724-7.3022h-1.9777l.38.9128c.2017.4369.5221,1.29.83,2.1383l.0967.2674c.3519.9762.6687,1.8875.7465,2.0821h0l.6086,1.6735-1.5213.9127a20.4976,20.4976,0,0,1-10.1166,2.4341c-8.7475,0-14.9848-5.6288-15.289-13.8438h0l-5.7809,13.54h-6.6177l-6.0852-14.3v.076c0,8.2911-6.3894,14.6045-14.9086,14.6045-7.15,0-12.7028-4.26-14.3762-10.497h-2.0538l.38.9128c.0531.115.1144.2588.1815.4237l.0832.2076c.1714.4334.3709.971.5655,1.507l.0967.2674c.3519.9762.6687,1.8875.7466,2.0821h0l.6085,1.6735-1.5213.9127a20.5878,20.5878,0,0,1-10.1927,2.4341c-6.0091,0-10.8772-2.7383-13.3874-7.074h0v6.77H93.7381v-9.8884h4.1075V81.5H93.7381V71.6116ZM51.2179,61.4189l-.501.0041a30.3523,30.3523,0,1,0,.501-.0041Zm184.609,23.96c-6.3134,0-11.2576,5.3245-11.2576,12.17,0,7.074,4.8682,11.7139,10.9533,11.7139a9.0263,9.0263,0,0,0,6.9219-3.1186h0v3.4989a6.6165,6.6165,0,0,1-1.1409,4.1075,5.7328,5.7328,0,0,1-4.8682,2.0538,11.38,11.38,0,0,1-3.575-.6085,3.707,3.707,0,0,0,.076-.9128,3.1326,3.1326,0,0,0-3.1186-3.1187H229.59a3.28,3.28,0,0,0-3.1947,3.2708h0v.0761a4.2488,4.2488,0,0,0,1.3691,3.1186c1.5974,1.5974,5.2485,2.9665,9.356,2.9665,3.9554,0,6.9979-1.2931,8.9756-3.7271a11.686,11.686,0,0,0,2.282-7.2262h0v-19.32h3.4229V85.76h-9.1278v2.2059h-.0761A10.1664,10.1664,0,0,0,235.8269,85.3793ZM73.657,75.4148a32.3154,32.3154,0,0,1,1.9016,2.9666h0L66.8873,83.858l10.1166-2.2819c.38,1.0649.7606,2.2058,1.0649,3.3468h0l-13.2353,4.26,13.8438-.9888a25.8763,25.8763,0,0,1,.2282,3.4229h0l-13.8438.9888,13.6156,2.51a26.9306,26.9306,0,0,1-.6085,3.4229h0l-13.6156-2.51,12.4746,5.933a23.2042,23.2042,0,0,1-1.4452,3.1187h0L63.008,99.2231l10.649,8.7474c-.6846.9128-1.4452,1.8256-2.2059,2.6623h0l-9.8123-7.8347,7.3022,10.1927a24.1546,24.1546,0,0,1-2.8144,2.0537h0l-7.15-9.3559L63.16,116.794c-1.0649.4564-2.13.9128-3.2708,1.2931h0l-3.8032-7.53.5324,8.3671a28.7246,28.7246,0,0,1-3.575.4564h0l-1.6734-4.716-1.6734,4.716a27.5441,27.5441,0,0,1-3.499-.4564h0l.2282-7.9107-3.5751,7.074c-1.1409-.38-2.2058-.8367-3.2708-1.2931h0l3.5751-10.1166-6.5416,8.5193a24.164,24.164,0,0,1-2.8144-2.0538h0l8.0629-11.1815-10.6491,8.9c-.7606-.8367-1.5213-1.7495-2.2058-2.6623h0l10.649-8.9-12.5507,5.9331a23.6378,23.6378,0,0,1-1.5213-3.1187h0l12.6268-5.933L24.5192,98.8428a27.2605,27.2605,0,0,1-.6845-3.423h0l13.6916-2.6622-13.92-.9128V89.8671a9.315,9.315,0,0,1,.1521-1.4452h0l13.1592.7606L24.4432,85.075c.3042-1.1409.6846-2.2819,1.0649-3.3468h0l10.3448,2.358-8.9-5.5527,1.8256-3.0426,9.1277,4.1836a8.174,8.174,0,0,0-.38,3.0425c.01.3121.0133.6092.014.8922l0,.3329c-.0054,1.74-.0646,2.9214.7467,3.7952.3491.349.7549.6885,1.1674,1.0253l.413.336a10.184,10.184,0,0,1,1.6144,1.5292c.1521.2282.2282.38.38.6085a1.3645,1.3645,0,0,1,.38.5324h0l.2282.4564c.5325-.9888,1.6734-1.5213,1.9016-1.2931s-.6846.9128-1.5213,3.0426c-.2282.4564-.4564,1.217-.6846,1.8256a6.9485,6.9485,0,0,0-.3042,3.0426,13.8627,13.8627,0,0,0,2.2059,5.0963c.4564.5324,1.5973.2282,2.51,0a8.2178,8.2178,0,0,0,3.1187-1.9016,2.8885,2.8885,0,0,0,.9127-2.51,4.1909,4.1909,0,0,0-1.6734-2.434,8.9956,8.9956,0,0,1-2.13-1.6735c-.1521-.2282-.38-.6085-.6085-.9127-.2282-.38-.38-.6086-.2282-.6846.076-.0761.3042-.0761.5324.1521s.38.5325.4564.4564c.0761-.1521,0-.0761,0-.3043.1522-.3042.3043-.5324.6085-.6085.7607-.38,2.2059.5325,3.7272.5325s3.4229-1.3692,4.0314-.8367a.9353.9353,0,0,1,.5325.8367.0745.0745,0,0,0,.0761.076,1.6559,1.6559,0,0,0,.6845-.5324c.1522-.1521.3043-.2282.4564-.1521s.0761.4563,0,.6845a1.47,1.47,0,0,1-.38.6846c-.38.38-1.3692.4564-2.6623,1.5974a5.4525,5.4525,0,0,0-2.0537,2.9665,3.59,3.59,0,0,0,.7606,2.2819,3.5416,3.5416,0,0,0,2.51,1.2931c1.1409.1522,3.3468-.2282,3.9553-.8367a5.2075,5.2075,0,0,0,1.5974-2.89A8.667,8.667,0,0,0,60.65,95.04c-.6846-2.13-1.7495-3.3468-1.4453-3.575.2739-.1643.6266.1446.973.4724l.1151.1093c.0955.0907.19.1789.2811.255a13.4219,13.4219,0,0,1,.3043-1.5213,3.0466,3.0466,0,0,1,1.6734-2.0538c1.141-.6845,2.89-1.6734,3.0426-2.8143a14.863,14.863,0,0,0,.076-4.1075c-.0887-.2663-.1775-.636-.2662-1.0187l-.0761-.3291c-.038-.164-.076-.3257-.1141-.4778h0ZM51.9786,103.1024a1.0343,1.0343,0,0,0-1.2931.076,13.0167,13.0167,0,0,1-5.3245,2.8905c-.38.0761-.5325.6085-.3043,1.0649a9.4746,9.4746,0,0,0,2.13,2.7383,20.9221,20.9221,0,0,0,2.13,1.4453,13.211,13.211,0,0,1,1.9016,2.2058c.0761.0761.2282.1522.3043.0761l.0761-.0761a10.1224,10.1224,0,0,1,1.7495-2.2819c.8367-.6846,3.0425-1.9016,3.575-3.3469a11.4639,11.4639,0,0,1,.9128-1.9776c.38-.7607.1521-1.2171-.38-1.2171A9.8214,9.8214,0,0,1,51.9786,103.1024Zm188.184,7.3022a11.1682,11.1682,0,0,1-4.716.9888c-.4564,0-.8367-.076-1.2931-.076a4.9868,4.9868,0,0,1,.8367,2.13,8.3891,8.3891,0,0,0,1.3692.1521,3.9058,3.9058,0,0,0,3.1186-1.141h0l.0761-.076.0791-.1316A3.7161,3.7161,0,0,0,240.1626,110.4046Zm23.2758-25.1014c-6.5416,0-9.5081,3.1948-9.5081,6.1613a3.0558,3.0558,0,0,0,2.89,3.1947h.3043a3.0557,3.0557,0,0,0,3.1947-2.8905h0v-.2282c-.076-.38-.1521-.8367-.2282-1.217a8.0538,8.0538,0,0,1,2.358-.38,5.826,5.826,0,0,1,4.716,1.7495,4.9894,4.9894,0,0,1,.9128,3.2708h0v1.9776a32.37,32.37,0,0,0-6.0852-.6085c-5.7048,0-9.5841,2.8144-9.5841,7.2262s3.7272,6.6936,7.7586,6.6936a12.971,12.971,0,0,0,8.0629-3.1186h0v2.6623h9.0516v-4.4879h-3.4989V94.5831a8.96,8.96,0,0,0-1.8256-6.0091C270.36,86.52,267.3937,85.3032,263.4384,85.3032Zm-100.1772,0a12.3155,12.3155,0,0,0-12.7789,12.4746c0,6.6177,4.8682,12.4746,12.7789,12.4746,7.9868,0,12.7789-5.8569,12.7789-12.4746S171.1719,85.3032,163.2612,85.3032Zm-26.3944,0c-7.4544,0-12.17,5.7049-12.17,12.4746,0,7.3783,5.4006,12.3225,13.1592,12.3225a17.1182,17.1182,0,0,0,9.0517-2.13s-.3838-1.1259-.78-2.2645l-.0822-.2354c-.26-.7438-.5142-1.46-.6587-1.8358a18.55,18.55,0,0,1-6.6937,1.4453c-4.0314,0-6.9979-1.6735-7.8346-5.3246h17.2666a19.7913,19.7913,0,0,0,.38-2.9665C148.5047,90.4756,144.4732,85.3032,136.8668,85.3032Zm74.0869,0c-7.3782,0-12.17,5.7049-12.17,12.4746,0,7.3783,5.4006,12.3225,13.1592,12.3225a17.1182,17.1182,0,0,0,9.0517-2.13s-.3838-1.1259-.7805-2.2645l-.0821-.2354c-.26-.7438-.5142-1.46-.6587-1.8358a18.55,18.55,0,0,1-6.6937,1.4453c-4.0314,0-6.9979-1.6735-7.8347-5.3246h17.3428a13.1,13.1,0,0,0,.3043-2.9665c0-6.3134-4.0315-11.41-11.638-11.41h0Zm78.3467-.076c-6.6937,0-9.8124,3.8793-9.8124,7.6064,0,4.1836,2.7383,5.7049,9.356,7.4544,3.6511,1.0649,4.716,1.6734,4.716,2.89,0,1.7495-1.9777,2.5862-4.3357,2.5862a12.1168,12.1168,0,0,1-4.3357-.7606,5.02,5.02,0,0,0,.0761-1.0649,3.0559,3.0559,0,0,0-2.89-3.1947H281.77a3.1494,3.1494,0,0,0-3.1948,3.1186h0v.0761a4.306,4.306,0,0,0,1.3692,3.2708c1.5213,1.5213,5.5527,2.89,9.1278,2.89,5.4766,0,10.1166-2.6622,10.1926-7.7586,0-4.0314-3.2707-5.5527-9.0517-7.074-3.6511-1.0649-5.02-1.6734-5.02-3.1186,0-1.2171,1.3691-2.4341,4.0314-2.4341a8.5517,8.5517,0,0,1,3.4229.6085,5.02,5.02,0,0,0-.0761,1.0649,2.9389,2.9389,0,0,0,3.1947,2.9665,2.97,2.97,0,0,0,2.9666-2.9665h0V91.16a4.38,4.38,0,0,0-1.3692-3.1186C295.69,86.3681,292.1908,85.2272,289.3,85.2272ZM183.7226,73.7414H169.4985v5.5527h3.2708l12.931,30.502h3.8032l13.0071-30.502h3.1186V73.7414H191.4051v5.5527h4.0315L187.678,99.0709l-7.7586-19.7768h3.8032Zm-72.6418.0761H96.02V79.37h4.1075v24.8731H96.02v5.5528h26.1663V99.147h-5.9331v5.1724h-9.8884V79.37h4.716ZM162.9569,95.42c1.2171,0,2.51.9889,3.1948,3.9554.5324,2.4341,2.2058,2.2819,2.2058,3.575,0,1.9017-1.217,3.6511-2.51,3.499s-2.8905-1.5213-4.4118-1.5213c-1.1409,0-3.0425.4564-4.1074.2282s-1.4453-1.9016-1.4453-3.4229,1.5974-2.89,2.9666-4.1075C159.99,96.7129,162.0442,95.42,162.9569,95.42Zm100.1012,3.9554a21.4071,21.4071,0,0,1,4.9442.5325h0v3.8032a10.2185,10.2185,0,0,1-6.0092,2.2059c-2.13,0-3.575-.9889-3.575-2.9666C258.4181,100.7444,260.1676,99.4513,263.0581,99.3752Zm-26.09-8.9a8.0956,8.0956,0,0,1,5.3245,1.8256h0v9.5081a7.8257,7.8257,0,0,1-5.3245,2.358c-3.7272,0-6.3895-2.358-6.3895-6.77C230.5784,92.91,233.2407,90.4756,236.9679,90.4756Zm26.1662,11.0294c-.9888,0-2.51.2282-2.51,1.3692,0,.3042,0,.8367,1.4452.8367a7.4215,7.4215,0,0,0,3.8033-1.141h0v-.8367Q264.3891,101.6191,263.1341,101.505Zm23.6561.5325a8.0751,8.0751,0,0,1,.3043,1.4452c.7606.0761,1.4452.1521,2.13.1521a5.1138,5.1138,0,0,0,1.8256-.3042,17.377,17.377,0,0,0-2.8144-.9128h0Zm-143.0016-.2282h-9.28a7.0842,7.0842,0,0,0,4.1075,1.0649h0l.2762-.0026a13.5238,13.5238,0,0,0,4.8961-.9863h0Zm74.2392,0h-9.28a7.0842,7.0842,0,0,0,4.1075,1.0649h0l.2762-.0026a13.5248,13.5248,0,0,0,4.8962-.9863h0Zm18.94-9.1278c-2.8144,0-4.26,1.5974-4.26,4.716,0,2.9665,1.5213,4.64,4.26,4.64a5.0663,5.0663,0,0,0,3.1947-1.2171h0V93.5182A6.6713,6.6713,0,0,0,236.9679,92.6815Zm14.8326-.3042h-1.2931v9.1277a8.5471,8.5471,0,0,1,3.8793-5.4006,4.9218,4.9218,0,0,1-2.5862-3.7271ZM171.1719,95.8a.339.339,0,0,1,.4564-.2282.2654.2654,0,0,1,.1521.076,6.332,6.332,0,0,1-.2282,4.1075,1.8417,1.8417,0,0,1-2.434.9889h-.0761a1.8888,1.8888,0,0,1-.3042-2.9666C169.3464,97.0172,170.7155,96.8651,171.1719,95.8ZM156.36,90.5778a.3331.3331,0,0,1,.4362-.1782q.2281.114.2282.2282c.6085,1.217,1.9777,1.4452,2.358,2.434a1.9323,1.9323,0,0,1-.8367,2.6623c-1.217.6846-2.0538-.5325-2.358-1.6734a7.41,7.41,0,0,1,.1521-3.4229h0Zm11.3895-.0261a.3658.3658,0,0,1,.4564-.1521.1635.1635,0,0,1,.1521.1521,6.9248,6.9248,0,0,1,.7607,3.0426c-.0761,1.141-.9128,2.4341-2.358,1.9777h0l-.0824-.04a1.8133,1.8133,0,0,1-.9065-2.1658.0745.0745,0,0,0,.0761-.0761C166.1517,92.3012,167.2166,91.6927,167.749,90.5517Zm43.1287-.38a5.3541,5.3541,0,0,1,5.7809,5.4766H205.0207C205.6292,91.6927,208.2915,90.1714,210.8777,90.1714Zm-74.2391,0c3.4989,0,5.7048,2.13,5.7809,5.4766H130.7816C131.39,91.6927,134.0524,90.1714,136.6386,90.1714Zm125.7349,2.0537a5.055,5.055,0,0,1-.6846,2.0538h.3042a16.628,16.628,0,0,1,3.8794.2282,2.5642,2.5642,0,0,0-.38-1.2931C265.1118,92.7576,264.3512,92.2251,262.3735,92.2251Zm-99.5687-3.4229a.3582.3582,0,0,1,.4564.0761.2793.2793,0,0,1,.0761.2282c.076,1.1409.9127,2.0537.8367,3.2708-.0761,1.0649-.6085,2.0537-1.5974,1.9776-1.4452-.076-1.9016-1.3691-1.5973-2.7383A6.2408,6.2408,0,0,1,162.8048,88.8022Zm50.8873,4.64a3.4408,3.4408,0,0,0-2.8905-1.141,3.5676,3.5676,0,0,0-2.6622,1.141h5.5527Zm-74.1631,0a3.4407,3.4407,0,0,0-2.89-1.141,3.3119,3.3119,0,0,0-2.6623,1.141h5.5527Zm149.5432-1.5213a3.9724,3.9724,0,0,0-1.5974.3042,20.318,20.318,0,0,0,3.0426.9889,6.3449,6.3449,0,0,1-.3043-1.141,5.7538,5.7538,0,0,0-1.1409-.0761h0ZM43.9157,81.88c1.141.0761,3.0426.4564,3.1948,1.141a10.2337,10.2337,0,0,1,.38,2.6623c0,.38.2282.7606-.1522.9127s-.38-.3042-.6845-.4564c-.0761-.076-.5325.0761-.8368-.1521-.3042-.1521-.38-.6846-.9127-.9888a6.099,6.099,0,0,0-2.282-.6846,6.6563,6.6563,0,0,1-.7606-.6085s-.6085.2282-.8367,0-.2282-.38-.0761-.5325A5.3215,5.3215,0,0,1,43.9157,81.88Zm14.9848-.5324a4.811,4.811,0,0,1,3.1186,1.4452c.1522.0761.2282.3043-.076.5325h0l-.0478.0308a1.2848,1.2848,0,0,1-.865-.0308,12.4151,12.4151,0,0,1-1.2931,1.5213,37.6405,37.6405,0,0,1-3.8032,1.0649s-.38.6085-.7607.4563c-.5324-.1521,0-3.0425.3043-3.8032S57.6834,81.3479,58.9005,81.3479ZM40.4168,78.0771c.8367-1.0649,3.4989-1.0649,4.4878-.4564.4564.3043,1.7495,2.51,2.8144,2.8905,2.13.7606.9888,1.9016-.5325,1.7495-.9128-.1522-1.3692-1.2171-2.358-2.2059-1.5213-1.5213-3.1947-.3043-4.1835,0C39.96,80.2069,39.58,79.142,40.4168,78.0771Zm18.1794-.4564a5.8464,5.8464,0,0,1,2.282.2282A2.5787,2.5787,0,0,1,62.1713,79.37a5.0965,5.0965,0,0,1,.5324,2.358.2709.2709,0,0,1-.4564.2282c-.076-.1521-.6846-3.2708-3.6511-2.6623A9.881,9.881,0,0,0,54.6409,81.12c-.4564.3042-.7607-.6085-.5325-1.0649s.7606-.4564,1.2931-.9889A4.1014,4.1014,0,0,1,58.5962,77.6207Zm10.2687-7.2261c.9128.7606,1.7495,1.5973,2.5862,2.434h0L67.724,76.5558h0v-.2282c0-1.3692-.8367-2.13-1.9016-3.1186h0l-.0761-.1522Zm-35.37.1521,3.0426,2.8144.2282.2282a7.4857,7.4857,0,0,0-2.0538,2.8144h0l-3.8032-3.499Zm19.4725-6.4655.7607,7.8347L56.39,64.5376a18.7077,18.7077,0,0,1,3.4229.8367h0l-.6845,6.6937,3.8793-5.4006a23.6885,23.6885,0,0,1,3.0426,1.6734h0l-1.9017,3.6511c-1.0649-.5324-2.2058-.7606-2.6622,0-.7607,1.2171-1.5213,2.13-1.7495,2.0538a16.8121,16.8121,0,0,0-4.0314-.9128c-3.3469,0-4.26,2.2819-4.26,2.2819a6.368,6.368,0,0,0-4.64-2.2819c-2.89,0-3.8793.9128-3.8793.9128a10.2324,10.2324,0,0,0-1.2931-2.358c-.4564-.38-1.8256-.1522-3.1947.6085h0l-.0761-.1521-1.9777-3.6512.4564-.3042,1.9777-1.141.5325-.3042,3.9553,5.1724L42.6226,65.45c1.141-.3043,2.282-.6086,3.4229-.8368h0l2.6623,7.6826.7607-8.1389a12.8852,12.8852,0,0,1,1.7494-.0761h1.7495Z"/></g></svg>