<svg width="159" height="120" viewBox="0 0 159 120" fill="none" xmlns="http://www.w3.org/2000/svg">
<g clip-path="url(#clip0_1440_45433)">
<path d="M150.966 19.6875H7.63913C3.4269 19.6875 0 22.2803 0 25.4672V88.0234C0 91.0565 3.10502 93.5495 7.03652 93.783V94.4504C7.03652 97.6373 10.4634 100.229 14.6756 100.229H144.295C148.506 100.229 151.933 97.6373 151.933 94.4504V93.7546C155.69 93.3939 158.605 90.9622 158.605 88.0234V25.4672C158.605 22.2803 155.178 19.6875 150.966 19.6875ZM153.81 88.0234C153.81 89.2099 152.534 90.174 150.966 90.174H31.3031C29.9781 90.174 28.9048 90.9869 28.9048 91.9885C28.9048 92.991 29.9781 93.8031 31.3031 93.8031H147.138V94.4504C147.138 95.6369 145.862 96.601 144.295 96.601H14.6756C13.1074 96.601 11.832 95.6369 11.832 94.4504V93.8031H20.3254C21.6504 93.8031 22.7238 92.991 22.7238 91.9885C22.7238 90.9869 21.6504 90.174 20.3254 90.174H7.63913C6.07089 90.174 4.79548 89.2099 4.79548 88.0234V25.4672C4.79548 24.2807 6.07089 23.3157 7.63913 23.3157H150.966C152.534 23.3157 153.81 24.2807 153.81 25.4672V88.0234Z" fill="#C2E2E9"/>
<path d="M55.2283 47.9619H18.0044C14.7106 47.9619 12.0303 49.9898 12.0303 52.4819V80.6453C12.0303 83.1374 14.7106 85.1653 18.0044 85.1653H55.2283C58.5221 85.1653 61.2024 83.1374 61.2024 80.6453V52.4819C61.2024 49.9889 58.5221 47.9619 55.2283 47.9619ZM27.4695 81.537V77.3036C27.4695 76.3735 28.4702 75.6163 29.6996 75.6163H42.8191C44.0485 75.6163 45.0493 76.3726 45.0493 77.3036V81.537H27.4695ZM56.4069 80.6453C56.4069 81.137 55.8781 81.537 55.2283 81.537H49.8447V77.3036C49.8447 74.3721 46.6937 71.9881 42.8191 71.9881H29.6996C25.8262 71.9881 22.674 74.3721 22.674 77.3036V81.537H18.0044C17.3546 81.537 16.8258 81.137 16.8258 80.6453V52.4819C16.8258 51.9902 17.3546 51.5901 18.0044 51.5901H55.2283C55.8781 51.5901 56.4069 51.9902 56.4069 52.4819V80.6453Z" fill="#C2E2E9"/>
<path d="M36.2594 54.7383C31.2896 54.7383 27.2456 57.7971 27.2456 61.558C27.2456 65.3181 31.2896 68.3778 36.2594 68.3778C41.2303 68.3778 45.2731 65.3181 45.2731 61.558C45.2731 57.7971 41.2291 54.7383 36.2594 54.7383ZM36.2594 64.7487C33.9336 64.7487 32.0423 63.3168 32.0423 61.5571C32.0423 59.7975 33.9336 58.3665 36.2594 58.3665C38.5851 58.3665 40.4776 59.7975 40.4776 61.5571C40.4776 63.3168 38.5851 64.7487 36.2594 64.7487Z" fill="#C2E2E9"/>
<path d="M144.088 49.3906H70.8954C69.5704 49.3906 68.4971 50.2027 68.4971 51.2043C68.4971 52.2068 69.5704 53.0189 70.8954 53.0189H144.09C145.414 53.0189 146.487 52.2068 146.487 51.2043C146.487 50.2027 145.414 49.3906 144.088 49.3906Z" fill="#C2E2E9"/>
<path d="M70.8949 61.2043H118.3C119.624 61.2043 120.699 60.3923 120.699 59.3898C120.699 58.3873 119.624 57.5752 118.3 57.5752H70.8949C69.5699 57.5752 68.4966 58.3873 68.4966 59.3898C68.4966 60.3923 69.5699 61.2043 70.8949 61.2043Z" fill="#C2E2E9"/>
<path d="M89.9038 65.6318H70.8949C69.5699 65.6318 68.4966 66.4439 68.4966 67.4455C68.4966 68.448 69.5699 69.2601 70.8949 69.2601H89.9038C91.2276 69.2601 92.3022 68.448 92.3022 67.4455C92.3022 66.4439 91.2276 65.6318 89.9038 65.6318Z" fill="#C2E2E9"/>
<path d="M139.897 28.7031H131.749C130.424 28.7031 129.351 29.5152 129.351 30.5177C129.351 31.5202 130.424 32.3323 131.749 32.3323H139.897C140.887 32.3323 141.691 32.9411 141.691 33.6891V34.0864C141.691 34.8344 140.887 35.4432 139.897 35.4432H17.0295C16.0408 35.4432 15.2361 34.8344 15.2361 34.0864V33.6891C15.2361 32.9411 16.0408 32.3323 17.0295 32.3323H119.972C121.297 32.3323 122.37 31.5202 122.37 30.5177C122.37 29.5152 121.297 28.7031 119.972 28.7031H17.0295C13.3956 28.7031 10.4395 30.9398 10.4395 33.6891V34.0864C10.4395 36.8348 13.3956 39.0724 17.0295 39.0724H139.897C143.531 39.0724 146.487 36.8348 146.487 34.0864V33.6891C146.487 30.9398 143.531 28.7031 139.897 28.7031Z" fill="#C2E2E9"/>
<path d="M142.878 74.4897C140.539 75.8264 137.426 77.717 134.322 76.8719C132.783 76.4526 131.392 76.1276 129.833 76.774C129.449 76.9342 129.078 77.1246 128.715 77.3315C128.46 76.0196 126.814 75.159 125.124 75.8474C123.954 76.3244 122.75 76.7145 121.495 77.0147C122.311 75.3174 122.598 73.2721 121.662 71.5811C120.51 69.4992 117.423 68.7677 114.788 69.7601C112.466 70.6326 110.509 72.774 109.585 74.5602C108.612 76.4416 109.116 78.4686 111.146 79.8355C111.366 79.9838 111.596 80.1156 111.831 80.2401C110.176 81.0348 108.359 81.6583 106.587 82.2452C105.392 82.6407 105.14 83.9471 105.727 84.7271C106.429 85.6592 107.829 85.769 109.009 85.3781C112.136 84.3426 115.241 83.0856 117.679 81.3296C119.922 81.2417 122.253 80.7455 124.334 80.1166C124.379 80.4187 124.422 80.7217 124.467 81.0238C124.7 82.5995 126.909 83.3996 128.561 82.3065C129.281 81.8304 130.001 81.3543 130.721 80.8783C131.04 80.6668 131.357 80.4516 131.68 80.2429C132.077 79.9865 131.575 79.9591 132.191 80.1028C133.701 80.458 135.009 80.8197 136.634 80.6997C139.909 80.458 142.734 79.0875 145.3 77.6227C146.34 77.0276 146.853 76.0635 146.159 75.1407C145.577 74.3661 143.911 73.901 142.878 74.4897ZM114.204 75.592C114.729 74.768 115.837 73.3133 117.035 72.9672C117.103 72.9471 117.186 72.9361 117.267 72.937C117.148 72.9635 117.347 73.1979 117.384 73.3655C117.502 73.9193 117.436 74.5016 117.279 75.0464C117.016 75.9646 116.455 76.839 115.72 77.6016C115.545 77.5732 115.376 77.5393 115.21 77.4945C113.941 77.153 113.614 76.5176 114.204 75.592Z" fill="#C2E2E9"/>
</g>
<defs>
<clipPath id="clip0_1440_45433">
<rect width="158.605" height="120" fill="white"/>
</clipPath>
</defs>
</svg>
