<svg width="158" height="157" viewBox="0 0 158 157" fill="none" xmlns="http://www.w3.org/2000/svg">
<g clip-path="url(#clip0_1236_6694)">
<path d="M79.0778 0C35.8789 0 0.733398 35.1455 0.733398 78.3444C0.733398 121.543 35.8789 156.689 79.0778 156.689C122.277 156.689 157.422 121.543 157.422 78.3444C157.422 35.1455 122.277 0 79.0778 0ZM66.9294 111.005C62.3542 115.31 56.6242 117.461 49.7392 117.461C43.6056 117.461 38.1705 114.664 33.4368 109.068C28.8091 103.797 26.4962 98.0919 26.4962 91.9578C26.4962 73.9819 38.8876 56.6084 63.6728 39.8343C64.5545 39.2374 66.7678 38.7122 68.0626 40.1504L70.4517 43.155C71.6071 45.1088 70.2078 46.9207 69.3018 47.6721C64.9948 51.2449 61.8629 54.0087 59.9086 55.9635C56.0763 59.9938 53.2433 64.0281 51.3728 68.0503C50.9451 68.9699 52.0369 69.5537 52.604 69.739C66.7269 74.3677 73.7906 82.5277 73.7906 94.2177C73.7891 101.106 71.5021 106.702 66.9294 111.005ZM120.68 111.005C116.104 115.31 110.374 117.461 103.489 117.461C97.3558 117.461 91.9206 114.664 87.1869 109.068C82.5592 103.797 80.2464 98.0919 80.2464 91.9578C80.2464 73.9819 92.6377 56.6084 117.423 39.8343C118.305 39.2374 120.518 38.7122 121.813 40.1504L124.202 43.155C125.357 45.1088 123.958 46.9207 123.052 47.6721C118.745 51.2449 115.613 54.0087 113.659 55.9635C109.826 59.9938 106.993 64.0281 105.123 68.0503C104.695 68.9699 105.787 69.5537 106.354 69.739C120.477 74.3677 127.541 82.5277 127.541 94.2177C127.539 101.106 125.252 106.702 120.68 111.005Z" fill="#46B2C8"/>
</g>
<defs>
<clipPath id="clip0_1236_6694">
<rect width="156.689" height="156.689" fill="white" transform="translate(0.733398)"/>
</clipPath>
</defs>
</svg>
