<svg width="495" height="495" viewBox="0 0 495 495" fill="none" xmlns="http://www.w3.org/2000/svg">
<path d="M144.54 423.918C160.281 412.285 163.261 391.565 162.024 373.071C161.816 369.983 162.024 366.706 160.479 364.052C158.935 361.399 155.361 359.647 152.559 361.082C150.272 362.241 149.342 364.943 148.114 367.191C146.464 370.203 143.997 372.688 140.996 374.358C139.016 375.447 136.581 376.16 134.581 375.15C131.829 373.764 131.393 370.091 131.314 367.022L130.868 349.826C130.779 346.747 130.69 343.609 129.631 340.728C128.571 337.847 126.334 335.204 123.344 334.481C120.354 333.758 116.751 335.57 116.216 338.6C116.127 339.875 116.127 341.155 116.216 342.431C116.216 343.708 115.612 345.143 114.395 345.539C113.177 345.935 111.89 345.104 110.93 344.243C107.613 341.273 105.306 337.313 103.138 333.402C100.97 329.492 98.8516 325.482 95.8321 322.205C92.8126 318.928 88.6744 316.364 84.2095 316.265C79.7446 316.166 75.0817 319.037 74.0917 323.393C73.1017 327.749 75.8044 332.075 78.7051 335.491C83.0193 340.569 88.0443 344.997 93.6244 348.638C94.7039 349.177 95.5818 350.048 96.1291 351.123C97.0201 353.113 95.0401 355.212 93.0601 355.954C90.7633 356.796 88.2388 356.637 85.8232 357.004C83.4076 357.37 80.8039 358.508 79.9525 360.805C78.7843 363.993 81.5563 367.191 84.2392 369.26C89.643 373.414 95.7165 376.615 102.198 378.724C104.514 379.477 106.95 380.12 108.851 381.645C110.751 383.169 111.949 385.902 110.91 388.109C109.87 390.317 107.019 391.079 104.604 390.733C102.188 390.386 100 389.159 97.6735 388.387C93.3472 386.931 87.7735 387.397 85.1995 391.149C84.4059 392.429 83.9228 393.878 83.7887 395.379C83.6546 396.879 83.8733 398.39 84.4273 399.791C85.5649 402.575 87.2479 405.103 89.3773 407.226C96.4534 415.065 105.477 420.892 115.533 424.116C125.572 427.185 134.798 427.808 144.55 423.918" fill="#EBEBEB"/>
<path d="M78.5566 318.988L78.8635 319.265L79.8535 320.048C80.695 320.731 81.9325 321.74 83.4868 323.077C87.9015 326.85 92.0219 330.954 95.8123 335.353C98.2279 338.115 100.762 341.293 103.386 344.689C106.009 348.084 108.801 351.807 111.583 355.787C114.526 359.923 117.236 364.219 119.701 368.657C120.978 370.963 122.136 373.389 123.305 375.864L126.859 383.378C131.429 392.883 135.455 402.64 138.917 412.603C141.707 420.746 143.719 429.136 144.926 437.66C145.71 443.412 145.988 449.223 145.758 455.024C145.659 457.074 145.55 458.667 145.431 459.747C145.431 460.271 145.352 460.677 145.322 460.974C145.293 461.271 145.322 461.39 145.322 461.39C145.322 461.39 145.708 459.143 145.956 455.034C146.26 449.22 146.028 443.391 145.263 437.62C144.102 429.062 142.113 420.637 139.323 412.464C135.876 402.479 131.857 392.702 127.284 383.18C126.077 380.645 124.899 378.141 123.72 375.666C122.542 373.191 121.394 370.716 120.107 368.439C117.602 363.99 114.852 359.684 111.87 355.539C109.068 351.579 106.267 347.876 103.614 344.451C100.96 341.026 98.4259 337.897 95.9905 335.135C92.1827 330.746 88.0314 326.668 83.5759 322.938C82.0018 321.622 80.7445 320.632 79.8832 319.968L78.8932 319.216L78.5566 318.988Z" fill="#E0E0E0"/>
<path d="M119.958 368.419C120.071 367.984 120.15 367.54 120.196 367.093C120.325 366.231 120.473 364.994 120.642 363.449C120.968 360.38 121.285 356.113 121.632 351.411C121.978 346.708 122.354 342.501 122.76 339.402C122.948 337.868 123.126 336.63 123.255 335.779C123.346 335.339 123.396 334.892 123.404 334.442C123.254 334.867 123.144 335.304 123.077 335.749C122.889 336.591 122.671 337.828 122.433 339.353C121.948 342.412 121.503 346.669 121.166 351.381C120.83 356.094 120.533 360.291 120.315 363.42C120.196 364.895 120.097 366.122 120.018 367.073C119.952 367.518 119.932 367.97 119.958 368.419Z" fill="#E0E0E0"/>
<path d="M79.6655 362.34C79.7996 362.384 79.9403 362.404 80.0813 362.4L81.2693 362.459C82.2593 362.509 83.7938 362.578 85.6352 362.716C89.318 362.984 94.3967 363.518 99.9605 364.37C105.524 365.221 110.534 366.221 114.137 367.043C115.939 367.449 117.385 367.805 118.384 368.033L119.543 368.32C119.678 368.359 119.818 368.383 119.959 368.389C119.839 368.317 119.709 368.263 119.572 368.231L118.434 367.864C117.444 367.558 116.008 367.152 114.207 366.706C110.623 365.795 105.613 364.726 100.03 363.885C94.4462 363.043 89.3576 362.548 85.655 362.37C83.8136 362.271 82.3088 362.251 81.2792 362.261H80.0813C79.9401 362.271 79.8005 362.297 79.6655 362.34Z" fill="#E0E0E0"/>
<path d="M138.828 411.761C138.923 411.602 139.006 411.437 139.075 411.266C139.234 410.88 139.451 410.404 139.709 409.81C140.243 408.543 140.986 406.692 141.877 404.395C143.649 399.802 145.906 393.376 148.312 386.258C150.718 379.14 152.915 372.715 154.608 368.092C155.45 365.825 156.143 363.973 156.638 362.627C156.865 362.023 157.044 361.528 157.182 361.142C157.258 360.97 157.314 360.791 157.351 360.607C157.25 360.763 157.167 360.929 157.103 361.102L156.469 362.558C155.925 363.825 155.192 365.676 154.301 367.973C152.529 372.567 150.272 378.992 147.866 386.11C145.461 393.228 143.263 399.653 141.57 404.276C140.728 406.543 140.035 408.395 139.54 409.741C139.313 410.345 139.135 410.84 138.986 411.226C138.91 411.397 138.857 411.576 138.828 411.761Z" fill="#E0E0E0"/>
<path d="M85.061 396.594C85.2335 396.672 85.4123 396.735 85.5956 396.782L87.1598 397.227L92.9315 398.851C97.7924 400.217 104.485 402.197 111.88 404.395C119.275 406.593 125.988 408.533 130.878 409.82C133.324 410.464 135.304 410.969 136.68 411.295L138.264 411.662C138.448 411.711 138.637 411.744 138.828 411.761C138.655 411.676 138.472 411.613 138.283 411.572L136.719 411.117L130.957 409.503C126.097 408.127 119.404 406.157 112.009 403.949C104.614 401.742 97.9013 399.821 93.0602 398.534C90.6149 397.881 88.6349 397.376 87.2588 397.059L85.6748 396.693C85.4755 396.633 85.2691 396.599 85.061 396.594Z" fill="#E0E0E0"/>
<path d="M189.961 149.114H32.5811V254.52H189.961V149.114Z" fill="#EBEBEB"/>
<path d="M189.961 149.114H32.5811V159.648H189.961V149.114Z" fill="#E0E0E0"/>
<path d="M39.4019 154.38C39.4218 154.636 39.3642 154.892 39.2365 155.115C39.1088 155.337 38.917 155.516 38.686 155.628C38.4551 155.74 38.1958 155.78 37.942 155.743C37.6881 155.705 37.4514 155.592 37.2627 155.418C37.0741 155.244 36.9423 155.017 36.8844 154.767C36.8266 154.517 36.8454 154.255 36.9385 154.016C37.0315 153.777 37.1945 153.571 37.4061 153.426C37.6177 153.281 37.8682 153.203 38.1248 153.202C38.2861 153.196 38.447 153.221 38.5985 153.276C38.75 153.332 38.889 153.417 39.0076 153.526C39.1263 153.636 39.2221 153.768 39.2898 153.914C39.3574 154.061 39.3955 154.219 39.4019 154.38Z" fill="#FAFAFA"/>
<path d="M43.5601 154.38C43.58 154.636 43.5224 154.892 43.3947 155.115C43.267 155.337 43.0752 155.516 42.8443 155.628C42.6133 155.74 42.354 155.78 42.1002 155.743C41.8463 155.705 41.6096 155.592 41.4209 155.418C41.2323 155.244 41.1005 155.017 41.0426 154.767C40.9848 154.517 41.0036 154.255 41.0967 154.016C41.1897 153.777 41.3527 153.571 41.5643 153.426C41.7759 153.281 42.0264 153.203 42.283 153.202C42.4443 153.196 42.6052 153.221 42.7567 153.276C42.9082 153.332 43.0472 153.417 43.1658 153.526C43.2845 153.636 43.3803 153.768 43.448 153.914C43.5157 154.061 43.5538 154.219 43.5601 154.38Z" fill="#FAFAFA"/>
<path d="M47.6094 154.38C47.6294 154.637 47.5715 154.893 47.4434 155.116C47.3152 155.339 47.1228 155.518 46.8913 155.629C46.6598 155.741 46.4 155.78 46.1458 155.742C45.8916 155.704 45.6549 155.59 45.4666 155.415C45.2783 155.24 45.1473 155.012 45.0906 154.761C45.0338 154.51 45.0541 154.248 45.1487 154.009C45.2433 153.77 45.4078 153.565 45.6208 153.421C45.8337 153.277 46.0852 153.201 46.3422 153.202C46.503 153.196 46.6635 153.221 46.8144 153.277C46.9653 153.332 47.1036 153.418 47.2215 153.527C47.3393 153.637 47.4343 153.768 47.5008 153.915C47.5674 154.061 47.6043 154.22 47.6094 154.38Z" fill="#FAFAFA"/>
<path d="M467.438 145.976H310.058V251.381H467.438V145.976Z" fill="#EBEBEB"/>
<path d="M467.438 145.976H310.058V156.509H467.438V145.976Z" fill="#E0E0E0"/>
<path d="M316.87 151.242C316.841 151.56 316.695 151.856 316.46 152.071C316.224 152.287 315.917 152.407 315.597 152.407C315.278 152.407 314.97 152.287 314.735 152.071C314.499 151.856 314.353 151.56 314.325 151.242C314.353 150.924 314.499 150.628 314.735 150.412C314.97 150.197 315.278 150.077 315.597 150.077C315.917 150.077 316.224 150.197 316.46 150.412C316.695 150.628 316.841 150.924 316.87 151.242Z" fill="#FAFAFA"/>
<path d="M320.978 151.243C320.996 151.498 320.936 151.753 320.807 151.975C320.678 152.196 320.486 152.374 320.254 152.484C320.023 152.595 319.764 152.633 319.511 152.594C319.257 152.555 319.022 152.441 318.834 152.267C318.646 152.092 318.516 151.865 318.459 151.616C318.402 151.366 318.421 151.105 318.515 150.866C318.608 150.627 318.771 150.422 318.983 150.278C319.194 150.133 319.444 150.055 319.701 150.055C319.863 150.048 320.025 150.074 320.177 150.13C320.329 150.186 320.468 150.272 320.587 150.382C320.706 150.493 320.801 150.626 320.869 150.773C320.936 150.921 320.973 151.081 320.978 151.243Z" fill="#FAFAFA"/>
<path d="M325.086 151.243C325.104 151.498 325.045 151.753 324.916 151.975C324.787 152.196 324.594 152.374 324.363 152.484C324.132 152.595 323.872 152.633 323.619 152.594C323.366 152.555 323.13 152.441 322.942 152.267C322.755 152.092 322.624 151.865 322.567 151.616C322.51 151.366 322.53 151.105 322.623 150.866C322.717 150.627 322.88 150.422 323.091 150.278C323.303 150.133 323.553 150.055 323.809 150.055C323.971 150.048 324.133 150.074 324.285 150.13C324.437 150.186 324.577 150.272 324.695 150.382C324.814 150.493 324.91 150.626 324.977 150.773C325.044 150.921 325.081 151.081 325.086 151.243Z" fill="#FAFAFA"/>
<path d="M265.31 124.423H64.4985V258.914H265.31V124.423Z" fill="white"/>
<path d="M265.508 123.463H64.6963V136.897H265.508V123.463Z" fill="#EBEBEB"/>
<path d="M75.3192 129.224C75.3411 129.549 75.2647 129.873 75.1001 130.154C74.9355 130.435 74.6902 130.66 74.3961 130.8C74.102 130.94 73.7727 130.988 73.451 130.938C73.1292 130.888 72.8298 130.743 72.5917 130.521C72.3536 130.298 72.1878 130.01 72.1159 129.692C72.0439 129.375 72.069 129.043 72.1881 128.74C72.3071 128.437 72.5145 128.177 72.7833 127.993C73.0522 127.809 73.37 127.711 73.6956 127.71C74.1115 127.696 74.5158 127.848 74.82 128.132C75.1243 128.416 75.3037 128.809 75.3192 129.224Z" fill="#FAFAFA"/>
<path d="M80.5565 129.224C80.5784 129.549 80.502 129.873 80.3374 130.154C80.1728 130.435 79.9275 130.66 79.6334 130.8C79.3393 130.94 79.01 130.988 78.6883 130.938C78.3665 130.888 78.0671 130.743 77.829 130.521C77.591 130.298 77.4252 130.01 77.3532 129.692C77.2812 129.375 77.3063 129.043 77.4254 128.74C77.5444 128.437 77.7518 128.177 78.0206 127.993C78.2895 127.809 78.6073 127.711 78.9329 127.71C79.3488 127.696 79.7531 127.848 80.0573 128.132C80.3616 128.416 80.541 128.809 80.5565 129.224Z" fill="#FAFAFA"/>
<path d="M85.7934 129.225C85.8151 129.549 85.7392 129.872 85.5754 130.152C85.4116 130.433 85.1675 130.658 84.8746 130.798C84.5817 130.938 84.2535 130.987 83.9323 130.939C83.6112 130.891 83.3118 130.747 83.073 130.527C82.8343 130.307 82.6669 130.021 82.5927 129.704C82.5186 129.388 82.5409 129.057 82.6568 128.754C82.7728 128.45 82.977 128.189 83.2432 128.003C83.5094 127.817 83.8252 127.715 84.15 127.71C84.3578 127.699 84.5657 127.73 84.7615 127.801C84.9573 127.872 85.1369 127.981 85.29 128.122C85.443 128.263 85.5664 128.433 85.6528 128.623C85.7393 128.812 85.7871 129.017 85.7934 129.225Z" fill="#FAFAFA"/>
<path d="M265.508 257.964C265.508 257.964 265.508 257.122 265.508 255.519C265.508 253.915 265.508 251.559 265.508 248.43C265.508 242.213 265.508 233.075 265.449 221.383C265.449 198.019 265.379 164.429 265.33 123.463L265.557 123.69L64.7162 123.75L65.0033 123.463C65.0033 171.379 65.0033 216.948 65.0033 257.964L64.7459 257.697L209.434 257.825L250.757 257.895H261.746H264.587H265.577H264.637H261.825H250.935L209.672 257.964L64.8053 258.093H64.5479V257.835C64.5479 216.82 64.5479 171.25 64.5479 123.334V123.057H64.8548H265.647H265.874V123.284C265.825 164.31 265.775 197.95 265.746 221.354C265.746 233.016 265.746 242.144 265.696 248.341C265.696 251.43 265.696 253.786 265.696 255.39C265.696 256.994 265.508 257.964 265.508 257.964Z" fill="#263238"/>
<path d="M123.433 198.524H77.7744V201.584H123.433V198.524Z" fill="#FF993C"/>
<path d="M182.407 156.123H136.749V159.182H182.407V156.123Z" fill="#46B2C8"/>
<path d="M250.311 167.498C250.311 167.656 224.888 167.785 193.535 167.785C162.182 167.785 136.749 167.656 136.749 167.498C136.749 167.34 162.162 167.211 193.535 167.211C224.908 167.211 250.311 167.31 250.311 167.498Z" fill="#263238"/>
<path d="M250.311 174.171C250.311 174.319 224.888 174.448 193.535 174.448C162.182 174.448 136.749 174.319 136.749 174.171C136.749 174.022 162.162 173.884 193.535 173.884C224.908 173.884 250.311 174.012 250.311 174.171Z" fill="#263238"/>
<path d="M250.311 180.834C250.311 180.992 224.888 181.121 193.535 181.121C162.182 181.121 136.749 180.992 136.749 180.834C136.749 180.676 162.162 180.547 193.535 180.547C224.908 180.547 250.311 180.676 250.311 180.834Z" fill="#263238"/>
<path d="M250.311 187.506C250.311 187.664 224.888 187.793 193.535 187.793C162.182 187.793 136.749 187.664 136.749 187.506C136.749 187.347 162.162 187.219 193.535 187.219C224.908 187.219 250.311 187.347 250.311 187.506Z" fill="#263238"/>
<path d="M250.311 194.179C250.311 194.337 224.888 194.456 193.535 194.456C162.182 194.456 136.749 194.337 136.749 194.179C136.749 194.02 162.162 193.892 193.535 193.892C224.908 193.892 250.311 194.04 250.311 194.179Z" fill="#263238"/>
<path d="M181.081 200.842C181.081 201 171.181 201.129 158.915 201.129C146.649 201.129 136.749 201 136.749 200.842C136.749 200.683 146.649 200.564 158.915 200.564C171.181 200.564 181.081 200.683 181.081 200.842Z" fill="#263238"/>
<path d="M249.48 213.84C249.48 213.998 232.769 214.127 212.157 214.127C191.545 214.127 174.834 213.998 174.834 213.84C174.834 213.681 191.545 213.553 212.157 213.553C232.769 213.553 249.48 213.632 249.48 213.84Z" fill="#263238"/>
<path d="M249.48 220.869C249.48 221.028 232.769 221.156 212.157 221.156C191.545 221.156 174.834 221.028 174.834 220.869C174.834 220.711 191.545 220.582 212.157 220.582C232.769 220.582 249.48 220.711 249.48 220.869Z" fill="#263238"/>
<path d="M249.48 227.947C249.48 228.106 232.769 228.234 212.157 228.234C191.545 228.234 174.834 228.106 174.834 227.947C174.834 227.789 191.545 227.66 212.157 227.66C232.769 227.66 249.48 227.789 249.48 227.947Z" fill="#263238"/>
<path d="M249.48 235.026C249.48 235.185 232.769 235.313 212.157 235.313C191.545 235.313 174.834 235.185 174.834 235.026C174.834 234.868 191.545 234.739 212.157 234.739C232.769 234.739 249.48 234.868 249.48 235.026Z" fill="#263238"/>
<path d="M123.542 213.107C123.542 213.266 113.583 213.394 101.297 213.394C89.0112 213.394 79.0518 213.266 79.0518 213.107C79.0518 212.949 89.0112 212.83 101.297 212.83C113.583 212.83 123.542 212.949 123.542 213.107Z" fill="#263238"/>
<path d="M123.542 218.671C123.542 218.829 113.583 218.958 101.297 218.958C89.0112 218.958 79.0518 218.829 79.0518 218.671C79.0518 218.512 89.0112 218.384 101.297 218.384C113.583 218.384 123.542 218.512 123.542 218.671Z" fill="#263238"/>
<path d="M123.542 224.235C123.542 224.384 113.583 224.513 101.297 224.513C89.0112 224.513 79.0518 224.384 79.0518 224.235C79.0518 224.087 89.0112 223.948 101.297 223.948C113.583 223.948 123.542 224.077 123.542 224.235Z" fill="#263238"/>
<path d="M123.542 229.789C123.542 229.947 113.583 230.076 101.297 230.076C89.0112 230.076 79.0518 229.947 79.0518 229.789C79.0518 229.631 89.0112 229.502 101.297 229.502C113.583 229.502 123.542 229.68 123.542 229.789Z" fill="#263238"/>
<path d="M123.542 235.353C123.542 235.511 113.583 235.64 101.297 235.64C89.0112 235.64 79.0518 235.511 79.0518 235.353C79.0518 235.194 89.0112 235.065 101.297 235.065C113.583 235.065 123.542 235.194 123.542 235.353Z" fill="#263238"/>
<path d="M169.112 210.415H136.719V241.758H169.112V210.415Z" fill="#46B2C8"/>
<g opacity="0.3">
<path d="M139.233 239.066L148.193 222.938L155.519 233.254L159.974 227.78L166.597 239.066H139.233Z" fill="black"/>
</g>
<g opacity="0.3">
<path d="M158.647 219.78C158.647 220.242 158.51 220.694 158.254 221.078C157.997 221.462 157.632 221.761 157.205 221.938C156.778 222.115 156.308 222.161 155.855 222.071C155.402 221.981 154.986 221.759 154.659 221.432C154.332 221.105 154.11 220.689 154.02 220.236C153.929 219.782 153.976 219.313 154.152 218.886C154.329 218.459 154.629 218.094 155.013 217.837C155.397 217.58 155.849 217.443 156.311 217.443C156.931 217.443 157.525 217.69 157.963 218.128C158.401 218.566 158.647 219.16 158.647 219.78Z" fill="black"/>
</g>
<path opacity="0.3" d="M166.597 239.154V239.025C166.597 238.936 166.597 238.817 166.597 238.659C166.597 238.332 166.597 237.857 166.597 237.253C166.597 236.006 166.597 234.214 166.597 231.927C166.597 227.353 166.597 220.829 166.528 213.008L166.657 213.137H139.293L139.441 212.988V226.759C139.441 231.145 139.441 235.303 139.441 239.114L139.313 238.986L159.113 239.055H164.686H166.171H164.746H159.192L139.323 239.124H139.184V238.986C139.184 235.174 139.184 231.066 139.184 226.63C139.184 224.433 139.184 222.182 139.184 219.879V212.86L139.342 212.701H166.706H166.845V212.84C166.845 220.7 166.845 227.244 166.775 231.848C166.775 234.115 166.775 235.907 166.775 237.134C166.775 237.738 166.775 238.194 166.775 238.52V238.877C166.607 239.124 166.607 239.154 166.597 239.154Z" fill="black"/>
<path d="M121.691 147.382H75.9131V191.665H121.691V147.382Z" fill="#FF993C"/>
<g opacity="0.3">
<path d="M79.4575 187.883L92.1196 165.093L102.485 179.656L108.771 171.924L118.137 187.883H79.4575Z" fill="black"/>
</g>
<g opacity="0.3">
<path d="M103.594 163.954C105.414 163.954 106.89 162.478 106.89 160.657C106.89 158.836 105.414 157.36 103.594 157.36C101.773 157.36 100.297 158.836 100.297 160.657C100.297 162.478 101.773 163.954 103.594 163.954Z" fill="black"/>
</g>
<path opacity="0.3" d="M118.137 188.001C118.133 187.942 118.133 187.882 118.137 187.823C118.137 187.684 118.137 187.516 118.137 187.308C118.137 186.833 118.137 186.17 118.137 185.328C118.137 183.576 118.137 181.032 118.087 177.804C118.087 171.34 118.028 162.133 117.988 151.074L118.177 151.252H79.5071C79.5718 151.176 79.6413 151.103 79.715 151.035V170.508C79.715 176.715 79.715 182.576 79.715 187.972L79.5269 187.783L107.494 187.882L115.414 187.932H117.503H115.454L107.603 187.981L79.517 188.08H79.3289V187.892C79.3289 182.497 79.3289 176.636 79.3289 170.429C79.3289 167.33 79.3289 164.142 79.3289 160.885V150.985C79.1408 151.183 79.5962 150.718 79.5566 150.767H118.226H118.414V150.955C118.414 162.063 118.345 171.31 118.315 177.814C118.315 181.012 118.315 183.546 118.315 185.289C118.315 186.13 118.315 186.784 118.315 187.269V187.764C118.269 187.852 118.209 187.932 118.137 188.001Z" fill="black"/>
<path d="M436.234 130.849H241.778V261.083H436.234V130.849Z" fill="white"/>
<path d="M436.422 129.928H241.966V142.936H436.422V129.928Z" fill="#EBEBEB"/>
<path d="M252.252 135.511C252.274 135.826 252.2 136.141 252.041 136.413C251.882 136.686 251.644 136.905 251.359 137.041C251.074 137.177 250.755 137.224 250.443 137.176C250.131 137.128 249.84 136.988 249.609 136.772C249.378 136.557 249.217 136.278 249.147 135.97C249.077 135.662 249.101 135.34 249.216 135.046C249.331 134.752 249.532 134.499 249.793 134.321C250.054 134.143 250.362 134.047 250.678 134.046C250.878 134.038 251.077 134.07 251.264 134.139C251.452 134.209 251.624 134.315 251.77 134.451C251.916 134.587 252.034 134.751 252.117 134.933C252.2 135.115 252.245 135.312 252.252 135.511Z" fill="#FAFAFA"/>
<path d="M257.331 135.511C257.353 135.826 257.279 136.14 257.12 136.413C256.961 136.686 256.724 136.905 256.439 137.041C256.154 137.177 255.834 137.224 255.522 137.176C255.21 137.128 254.919 136.987 254.688 136.772C254.457 136.557 254.296 136.277 254.226 135.969C254.156 135.661 254.18 135.339 254.295 135.045C254.41 134.751 254.611 134.499 254.872 134.321C255.133 134.142 255.441 134.047 255.757 134.046C256.16 134.032 256.551 134.179 256.846 134.454C257.141 134.728 257.315 135.108 257.331 135.511Z" fill="#FAFAFA"/>
<path d="M262.399 135.511C262.421 135.826 262.348 136.141 262.189 136.413C262.029 136.686 261.792 136.905 261.507 137.041C261.222 137.177 260.903 137.224 260.59 137.176C260.278 137.128 259.988 136.988 259.757 136.772C259.525 136.557 259.364 136.278 259.294 135.97C259.224 135.662 259.248 135.34 259.363 135.046C259.479 134.752 259.68 134.499 259.94 134.321C260.201 134.143 260.509 134.047 260.825 134.046C261.025 134.038 261.224 134.07 261.412 134.139C261.599 134.209 261.771 134.315 261.917 134.451C262.064 134.587 262.182 134.751 262.264 134.933C262.347 135.115 262.393 135.312 262.399 135.511Z" fill="#FAFAFA"/>
<path d="M436.422 260.172C436.422 260.172 436.422 259.361 436.422 257.806C436.422 256.252 436.422 253.945 436.422 250.936C436.422 244.917 436.422 236.086 436.363 224.75C436.363 202.119 436.293 169.587 436.244 129.928L436.471 130.156L242.035 130.215L242.323 129.928C242.323 176.329 242.323 220.454 242.323 260.172L242.055 259.905L382.17 260.034L422.186 260.103H432.828H435.571H436.511H435.6H432.888H422.305L382.338 260.172L242.055 260.301H241.798V260.044C241.798 220.325 241.798 176.201 241.798 129.799V129.69H242.095L436.531 129.75H436.759V129.978C436.709 169.696 436.669 202.248 436.64 224.938C436.64 236.244 436.64 245.065 436.58 251.074C436.58 254.044 436.58 256.351 436.58 257.905C436.58 259.46 436.422 260.172 436.422 260.172Z" fill="#263238"/>
<path d="M298.841 202.613H254.628V205.573H298.841V202.613Z" fill="#46B2C8"/>
<path d="M355.955 161.548H311.741V164.508H355.955V161.548Z" fill="#46B2C8"/>
<path d="M421.74 172.567C421.74 172.726 397.119 172.854 366.756 172.854C336.392 172.854 311.771 172.726 311.771 172.567C311.771 172.409 336.382 172.28 366.756 172.28C397.129 172.28 421.74 172.409 421.74 172.567Z" fill="#263238"/>
<path d="M421.74 179.021C421.74 179.18 397.119 179.308 366.756 179.308C336.392 179.308 311.771 179.18 311.771 179.021C311.771 178.863 336.382 178.744 366.756 178.744C397.129 178.744 421.74 178.863 421.74 179.021Z" fill="#263238"/>
<path d="M421.74 185.486C421.74 185.645 397.119 185.764 366.756 185.764C336.392 185.764 311.771 185.645 311.771 185.486C311.771 185.328 336.382 185.199 366.756 185.199C397.129 185.199 421.74 185.328 421.74 185.486Z" fill="#263238"/>
<path d="M421.74 191.941C421.74 192.1 397.119 192.228 366.756 192.228C336.392 192.228 311.771 192.1 311.771 191.941C311.771 191.783 336.382 191.654 366.756 191.654C397.129 191.654 421.74 191.783 421.74 191.941Z" fill="#263238"/>
<path d="M421.74 198.396C421.74 198.555 397.119 198.683 366.756 198.683C336.392 198.683 311.771 198.555 311.771 198.396C311.771 198.238 336.382 198.119 366.756 198.119C397.129 198.119 421.74 198.248 421.74 198.396Z" fill="#263238"/>
<path d="M354.668 204.86C354.668 205.019 345.055 205.147 333.204 205.147C321.354 205.147 311.741 205.019 311.741 204.86C311.741 204.702 321.344 204.573 333.204 204.573C345.065 204.573 354.668 204.702 354.668 204.86Z" fill="#263238"/>
<path d="M420.908 217.395C420.908 217.553 404.732 217.682 384.773 217.682C364.815 217.682 348.628 217.553 348.628 217.395C348.628 217.236 364.805 217.107 384.773 217.107C404.742 217.107 420.908 217.236 420.908 217.395Z" fill="#263238"/>
<path d="M420.908 224.245C420.908 224.403 404.732 224.532 384.773 224.532C364.815 224.532 348.628 224.403 348.628 224.245C348.628 224.087 364.805 223.968 384.773 223.968C404.742 223.968 420.908 224.096 420.908 224.245Z" fill="#263238"/>
<path d="M420.908 231.105C420.908 231.264 404.732 231.393 384.773 231.393C364.815 231.393 348.628 231.264 348.628 231.105C348.628 230.947 364.805 230.818 384.773 230.818C404.742 230.818 420.908 230.947 420.908 231.105Z" fill="#263238"/>
<path d="M420.908 237.957C420.908 238.115 404.732 238.244 384.773 238.244C364.815 238.244 348.628 238.115 348.628 237.957C348.628 237.798 364.805 237.68 384.773 237.68C404.742 237.68 420.908 237.798 420.908 237.957Z" fill="#263238"/>
<path d="M298.98 216.741C298.98 216.9 289.327 217.018 277.438 217.018C265.548 217.018 255.885 216.9 255.885 216.741C255.885 216.583 265.528 216.454 277.438 216.454C289.347 216.454 298.98 216.583 298.98 216.741Z" fill="#263238"/>
<path d="M298.98 222.116C298.98 222.274 289.327 222.403 277.438 222.403C265.548 222.403 255.885 222.274 255.885 222.116C255.885 221.958 265.528 221.839 277.438 221.839C289.347 221.839 298.98 221.968 298.98 222.116Z" fill="#263238"/>
<path d="M298.98 227.502C298.98 227.66 289.327 227.789 277.438 227.789C265.548 227.789 255.885 227.66 255.885 227.502C255.885 227.343 265.528 227.225 277.438 227.225C289.347 227.225 298.98 227.343 298.98 227.502Z" fill="#263238"/>
<path d="M298.98 232.888C298.98 233.046 289.327 233.175 277.438 233.175C265.548 233.175 255.885 233.046 255.885 232.888C255.885 232.729 265.528 232.601 277.438 232.601C289.347 232.601 298.98 232.729 298.98 232.888Z" fill="#263238"/>
<path d="M298.98 238.273C298.98 238.432 289.327 238.561 277.438 238.561C265.548 238.561 255.885 238.432 255.885 238.273C255.885 238.115 265.528 237.986 277.438 237.986C289.347 237.986 298.98 238.115 298.98 238.273Z" fill="#263238"/>
<path d="M343.085 214.117H311.711V244.471H343.085V214.117Z" fill="#46B2C8"/>
<g opacity="0.3">
<path d="M314.147 241.877L322.819 226.255L329.918 236.244L334.234 230.938L340.649 241.877H314.147Z" fill="black"/>
</g>
<g opacity="0.3">
<path d="M332.947 223.215C332.947 223.662 332.815 224.098 332.567 224.469C332.319 224.84 331.966 225.13 331.554 225.301C331.141 225.471 330.687 225.516 330.249 225.429C329.812 225.342 329.409 225.127 329.094 224.811C328.778 224.496 328.563 224.093 328.476 223.656C328.389 223.218 328.434 222.764 328.604 222.351C328.775 221.939 329.065 221.586 329.436 221.338C329.807 221.09 330.243 220.958 330.69 220.958C331.288 220.958 331.863 221.196 332.286 221.619C332.709 222.042 332.947 222.617 332.947 223.215Z" fill="black"/>
</g>
<path opacity="0.3" d="M340.649 241.956C340.651 241.917 340.651 241.877 340.649 241.837V241.481C340.649 241.154 340.649 240.699 340.649 240.115C340.649 238.907 340.649 237.145 340.649 234.957C340.649 230.532 340.649 224.215 340.58 216.632L340.708 216.761H314.206C314.206 216.761 314.483 216.483 314.355 216.622V223.433C314.355 225.661 314.355 227.849 314.355 229.977C314.355 234.224 314.355 238.244 314.355 241.936L314.226 241.808L333.392 241.877H338.798H340.223H338.847H333.472L314.226 241.936H314.097V241.808C314.097 238.115 314.097 234.096 314.097 229.848V216.642C313.959 216.771 314.275 216.454 314.246 216.483H340.748H340.877V216.612C340.877 224.225 340.827 230.571 340.807 235.026C340.807 237.224 340.807 238.986 340.807 240.144C340.807 240.729 340.807 241.134 340.807 241.491C340.807 241.629 340.807 241.738 340.807 241.827C340.77 241.887 340.715 241.932 340.649 241.956Z" fill="black"/>
<path d="M388.743 102.366H133.026V273.636H388.743V102.366Z" fill="white"/>
<path d="M388.991 101.148H133.274V118.256H388.991V101.148Z" fill="#E0E0E0"/>
<path d="M146.797 108.485C146.827 108.899 146.731 109.313 146.523 109.673C146.314 110.032 146.001 110.321 145.626 110.5C145.251 110.679 144.831 110.741 144.42 110.678C144.009 110.615 143.626 110.43 143.322 110.146C143.018 109.863 142.807 109.494 142.715 109.089C142.624 108.683 142.657 108.259 142.809 107.873C142.962 107.486 143.228 107.154 143.572 106.921C143.916 106.688 144.322 106.563 144.738 106.564C145 106.554 145.261 106.595 145.507 106.686C145.752 106.777 145.977 106.916 146.169 107.095C146.36 107.273 146.514 107.488 146.622 107.727C146.73 107.965 146.79 108.223 146.797 108.485Z" fill="#FAFAFA"/>
<path d="M153.45 108.484C153.48 108.898 153.384 109.312 153.176 109.671C152.968 110.031 152.656 110.319 152.281 110.498C151.907 110.678 151.487 110.741 151.076 110.678C150.666 110.616 150.283 110.432 149.979 110.149C149.674 109.867 149.462 109.499 149.369 109.094C149.277 108.689 149.308 108.266 149.46 107.879C149.611 107.492 149.875 107.16 150.218 106.925C150.56 106.691 150.966 106.565 151.381 106.564C151.644 106.552 151.906 106.592 152.153 106.683C152.399 106.773 152.626 106.912 152.818 107.09C153.011 107.269 153.166 107.484 153.274 107.724C153.383 107.963 153.443 108.222 153.45 108.484Z" fill="#FAFAFA"/>
<path d="M160.142 108.484C160.174 108.901 160.079 109.318 159.871 109.68C159.662 110.042 159.349 110.333 158.972 110.515C158.596 110.697 158.173 110.761 157.76 110.698C157.346 110.636 156.961 110.451 156.655 110.166C156.348 109.882 156.135 109.512 156.042 109.104C155.949 108.696 155.982 108.27 156.135 107.881C156.288 107.492 156.555 107.158 156.901 106.923C157.246 106.688 157.655 106.563 158.073 106.564C158.336 106.552 158.598 106.592 158.845 106.683C159.091 106.773 159.317 106.912 159.51 107.09C159.703 107.269 159.858 107.484 159.966 107.724C160.075 107.963 160.135 108.222 160.142 108.484Z" fill="#FAFAFA"/>
<path d="M388.991 272.418C388.991 270.557 388.902 205.475 388.763 101.148L388.991 101.376L133.294 101.436L133.581 101.148C133.581 162.162 133.581 220.186 133.581 272.418L133.314 272.161L389.031 272.418L133.314 272.676H133.056V272.418C133.056 220.186 133.056 162.162 133.056 101.148V100.861H133.353L389.05 100.921H389.278V101.148C389.07 205.475 389.001 270.557 388.991 272.418Z" fill="#263238"/>
<path d="M208.068 196.733H149.926V200.624H208.068V196.733Z" fill="#46B2C8"/>
<path d="M283.17 142.729H225.027V146.619H283.17V142.729Z" fill="#46B2C8"/>
<path d="M369.646 157.222C369.646 157.37 337.273 157.499 297.376 157.499C257.479 157.499 225.057 157.37 225.057 157.222C225.057 157.073 257.43 156.935 297.376 156.935C337.323 156.935 369.646 157.063 369.646 157.222Z" fill="#263238"/>
<path d="M369.646 165.706C369.646 165.864 337.273 165.993 297.376 165.993C257.479 165.993 225.057 165.864 225.057 165.706C225.057 165.548 257.43 165.429 297.376 165.429C337.323 165.429 369.646 165.557 369.646 165.706Z" fill="#263238"/>
<path d="M369.646 174.24C369.646 174.398 337.273 174.527 297.376 174.527C257.479 174.527 225.057 174.398 225.057 174.24C225.057 174.082 257.43 173.963 297.376 173.963C337.323 173.963 369.646 174.042 369.646 174.24Z" fill="#263238"/>
<path d="M369.646 182.695C369.646 182.854 337.273 182.982 297.376 182.982C257.479 182.982 225.057 182.854 225.057 182.695C225.057 182.537 257.43 182.418 297.376 182.418C337.323 182.418 369.646 182.537 369.646 182.695Z" fill="#263238"/>
<path d="M369.646 191.188C369.646 191.347 337.273 191.476 297.376 191.476C257.479 191.476 225.057 191.347 225.057 191.188C225.057 191.03 257.43 190.901 297.376 190.901C337.323 190.901 369.646 191.07 369.646 191.188Z" fill="#263238"/>
<path d="M281.477 199.684C281.477 199.842 268.844 199.971 253.252 199.971C237.659 199.971 225.027 199.842 225.027 199.684C225.027 199.525 237.659 199.396 253.252 199.396C268.844 199.396 281.477 199.525 281.477 199.684Z" fill="#263238"/>
<path d="M368.587 216.167C368.587 216.325 347.312 216.454 321.067 216.454C294.822 216.454 273.547 216.325 273.547 216.167C273.547 216.009 294.822 215.88 321.067 215.88C347.312 215.88 368.587 216.009 368.587 216.167Z" fill="#263238"/>
<path d="M368.587 225.186C368.587 225.344 347.312 225.473 321.067 225.473C294.822 225.473 273.547 225.344 273.547 225.186C273.547 225.027 294.822 224.898 321.067 224.898C347.312 224.898 368.587 225.027 368.587 225.186Z" fill="#263238"/>
<path d="M368.587 234.194C368.587 234.353 347.312 234.481 321.067 234.481C294.822 234.481 273.547 234.353 273.547 234.194C273.547 234.036 294.822 233.917 321.067 233.917C347.312 233.917 368.587 234.046 368.587 234.194Z" fill="#263238"/>
<path d="M368.587 243.214C368.587 243.372 347.312 243.501 321.067 243.501C294.822 243.501 273.547 243.372 273.547 243.214C273.547 243.055 294.822 242.927 321.067 242.927C347.312 242.927 368.587 243.055 368.587 243.214Z" fill="#263238"/>
<path d="M208.217 215.306C208.217 215.464 195.535 215.593 179.883 215.593C164.231 215.593 151.549 215.464 151.549 215.306C151.549 215.147 164.241 215.019 179.883 215.019C195.525 215.019 208.217 215.147 208.217 215.306Z" fill="#263238"/>
<path d="M208.217 222.384C208.217 222.542 195.535 222.671 179.883 222.671C164.231 222.671 151.549 222.542 151.549 222.384C151.549 222.225 164.241 222.097 179.883 222.097C195.525 222.097 208.217 222.225 208.217 222.384Z" fill="#263238"/>
<path d="M208.217 229.463C208.217 229.621 195.535 229.75 179.883 229.75C164.231 229.75 151.549 229.621 151.549 229.463C151.549 229.304 164.241 229.186 179.883 229.186C195.525 229.186 208.217 229.304 208.217 229.463Z" fill="#263238"/>
<path d="M208.217 236.541C208.217 236.699 195.535 236.828 179.883 236.828C164.231 236.828 151.549 236.699 151.549 236.541C151.549 236.382 164.241 236.264 179.883 236.264C195.525 236.264 208.217 236.392 208.217 236.541Z" fill="#263238"/>
<path d="M208.217 243.629C208.217 243.787 195.535 243.906 179.883 243.906C164.231 243.906 151.549 243.787 151.549 243.629C151.549 243.47 164.241 243.342 179.883 243.342C195.525 243.342 208.217 243.47 208.217 243.629Z" fill="#263238"/>
<path d="M266.241 211.87H224.987V251.777H266.241V211.87Z" fill="#46B2C8"/>
<g opacity="0.3">
<path d="M228.195 248.362L239.6 227.819L248.935 240.947L254.608 233.977L263.043 248.362H228.195Z" fill="black"/>
</g>
<g opacity="0.3">
<path d="M252.916 223.829C252.916 224.417 252.741 224.991 252.415 225.479C252.089 225.968 251.625 226.349 251.082 226.573C250.539 226.798 249.942 226.857 249.366 226.742C248.79 226.628 248.261 226.345 247.845 225.929C247.43 225.514 247.147 224.985 247.033 224.409C246.918 223.833 246.977 223.236 247.202 222.693C247.426 222.15 247.807 221.686 248.296 221.36C248.784 221.034 249.358 220.859 249.946 220.859C250.733 220.859 251.489 221.172 252.046 221.729C252.603 222.286 252.916 223.042 252.916 223.829Z" fill="black"/>
</g>
<path opacity="0.3" d="M263.043 248.49C263.043 248.49 263.043 248.431 263.043 248.332C263.043 248.233 263.043 248.054 263.043 247.866C263.043 247.441 263.043 246.876 263.043 246.065C263.043 244.481 263.043 242.194 263.043 239.293C263.043 233.462 262.994 225.156 262.954 215.186L263.122 215.355H228.274L228.462 215.167V232.719C228.462 238.303 228.462 243.609 228.462 248.451L228.294 248.282L253.49 248.371H260.598H262.489H263.142C263.142 248.371 263.142 248.371 262.994 248.371H262.518H260.667H253.599L228.294 248.46H228.116V248.49C228.116 243.629 228.116 238.343 228.116 232.759V215.186C227.938 215.355 228.354 214.939 228.314 214.988H263.162H263.33V215.157C263.33 225.176 263.271 233.511 263.251 239.362C263.251 242.253 263.251 244.53 263.201 246.104C263.201 246.866 263.201 247.451 263.201 247.866C263.201 248.054 263.201 248.203 263.201 248.322C263.201 248.441 263.053 248.49 263.043 248.49Z" fill="black"/>
<path d="M205.851 131.601H147.56V188.001H205.851V131.601Z" fill="#46B2C8"/>
<g opacity="0.3">
<path d="M152.074 183.17L168.201 154.153L181.388 172.696L189.407 162.846L201.326 183.17H152.074Z" fill="black"/>
</g>
<g opacity="0.3">
<path d="M187.011 148.5C187.011 149.331 186.765 150.142 186.303 150.832C185.842 151.523 185.187 152.061 184.42 152.378C183.653 152.696 182.809 152.779 181.994 152.617C181.18 152.455 180.432 152.056 179.845 151.469C179.258 150.881 178.858 150.134 178.696 149.319C178.534 148.505 178.618 147.661 178.935 146.894C179.253 146.127 179.791 145.471 180.481 145.01C181.172 144.549 181.983 144.303 182.813 144.303C183.365 144.301 183.911 144.409 184.421 144.62C184.931 144.83 185.394 145.139 185.784 145.529C186.174 145.919 186.484 146.383 186.694 146.892C186.905 147.402 187.012 147.949 187.011 148.5Z" fill="black"/>
</g>
<path opacity="0.3" d="M201.326 183.328C201.322 183.252 201.322 183.176 201.326 183.101C201.326 182.932 201.326 182.714 201.326 182.437C201.326 181.843 201.326 180.992 201.326 179.903C201.326 177.665 201.326 174.428 201.267 170.32C201.267 162.083 201.188 150.361 201.138 136.274L201.376 136.511H152.133L152.4 136.244V148.896C152.4 153.034 152.4 157.093 152.4 161.043C152.4 168.963 152.4 176.408 152.4 183.279L152.153 183.041L187.793 183.16L197.841 183.219H200.505H201.198H200.524H197.911L187.922 183.279L152.153 183.398H151.915V183.15C151.915 176.279 151.915 168.815 151.915 160.915V148.946C151.915 146.867 151.915 144.778 151.915 142.659V136.293C151.668 136.531 152.252 135.947 152.203 136.006H201.445H201.683V136.244C201.683 150.391 201.594 162.172 201.564 170.448C201.564 174.527 201.564 177.745 201.504 179.972C201.504 181.041 201.504 181.873 201.504 182.467C201.504 182.724 201.504 182.932 201.504 183.091C201.46 183.18 201.399 183.26 201.326 183.328Z" fill="black"/>
<path d="M467.725 461.766C467.725 461.934 371.527 462.063 252.895 462.063C134.264 462.063 38.0654 461.934 38.0654 461.766C38.0654 461.598 134.234 461.459 252.895 461.459C371.557 461.459 467.725 461.598 467.725 461.766Z" fill="#263238"/>
<path d="M256.479 453.143L253.955 461.548L271.933 461.34L272.735 452.341L256.479 453.143Z" fill="#46B2C8"/>
<path d="M272.25 459.637C271.388 459.8 270.512 459.87 269.636 459.845C268.012 459.845 265.775 459.845 263.31 459.845L257.004 459.647C256.138 459.637 255.276 459.54 254.43 459.36C255.291 459.199 256.167 459.132 257.043 459.162C258.667 459.162 260.904 459.162 263.369 459.162L269.676 459.36C270.541 459.365 271.403 459.458 272.25 459.637Z" fill="#263238"/>
<path d="M264.578 452.004C264.784 453.258 264.807 454.535 264.647 455.796C264.674 457.067 264.507 458.336 264.152 459.558C263.94 458.304 263.917 457.026 264.083 455.766C264.055 454.494 264.221 453.225 264.578 452.004Z" fill="#263238"/>
<path opacity="0.6" d="M253.955 461.548L271.933 461.34L272.091 459.637L254.252 459.409L253.955 461.35" fill="white"/>
<path d="M326.057 455.528L295.02 294.723L294.842 294.03C290.08 275.121 286.318 270.478 286.318 270.478L239.847 271.745C236.194 278.299 235.739 294.03 235.739 294.03C235.234 295.911 256.41 453.558 256.41 453.558L272.339 452.251L266.914 303.93L308.494 455.914L326.057 455.528Z" fill="#263238"/>
<path d="M279.18 298.911C279.18 299.069 274.042 300.534 267.627 302.198C261.211 303.861 255.974 305.078 255.935 304.93C255.895 304.781 261.063 303.306 267.488 301.643C273.913 299.98 279.18 298.762 279.18 298.911Z" fill="#455A64"/>
<path d="M237.144 216.335L201.504 218.503L170.814 191.011L170.498 190.021C170.31 189.506 170.121 188.932 169.933 188.269C169.711 187.508 169.62 186.714 169.666 185.922C169.67 184.917 169.814 183.918 170.092 182.952C170.438 182.111 169.607 181.289 168.914 181.715C168.221 182.141 167.241 184.437 167.349 187.368C167.458 190.298 164.498 186.833 163.389 185.596C162.281 184.358 158.697 180.695 158.063 180.745C157.123 180.814 157.014 181.853 158.152 183.061C159.291 184.269 162.419 188.15 161.756 188.714C161.093 189.278 155.559 182.893 155.559 182.893C155.559 182.893 154.569 181.329 153.806 181.962C152.381 183.101 158.756 189.437 159.37 190.021C159.796 190.437 159.093 191.08 158.657 190.615C158.222 190.15 153.282 184.111 151.816 185.259C150.698 186.13 157.014 190.516 157.351 192.347C157.687 194.179 152.896 188.526 151.856 189.377C151.47 189.704 151.222 190.001 154.44 192.842C156.594 194.904 158.858 196.847 161.221 198.664L193.317 234.086L238.154 238.046L237.144 216.335Z" fill="#FFBE9D"/>
<path d="M347.925 159.043C346.678 158.489 343.639 165.261 343.46 163.399C343.282 161.538 348.133 155.578 346.807 155.054C345.084 154.361 342.025 161.508 341.718 162.093C341.411 162.677 340.58 162.241 340.877 161.726C341.312 160.984 345.668 153.133 343.985 152.44C343.055 152.054 342.56 153.816 342.56 153.816C342.56 153.816 339.005 161.489 338.223 161.132C337.441 160.776 339.362 156.182 340.114 154.697C340.867 153.212 340.481 152.252 339.56 152.44C338.936 152.579 336.501 157.093 335.788 158.588C335.075 160.083 333.174 164.221 332.471 161.38C331.769 158.538 330.185 156.608 329.402 156.43C328.62 156.252 328.046 157.232 328.61 157.944C329.135 158.781 329.548 159.683 329.838 160.627C330.1 161.378 330.23 162.169 330.224 162.964C330.224 163.647 330.224 164.251 330.175 164.795L330.125 165.785L308.236 200.732L273.418 208.514L279.615 230.957L320.492 213.523L341.55 170.567C343.314 168.167 344.949 165.675 346.45 163.102C348.698 159.479 348.381 159.251 347.925 159.043Z" fill="#FFBE9D"/>
<path d="M282.15 236.333L282.714 234.273C284.14 233.382 300.92 222.918 301.524 222.819C302.128 222.72 294.03 203.554 294.03 203.554L274.933 206.286C273.877 205.98 272.797 205.765 271.705 205.643L249.262 205.455C249.262 205.455 243.322 206.445 240.738 208.316L220.423 215.978L225.057 239.58L241.025 238.204C241.243 239.976 242.223 246.698 242.649 248.44C244.065 254.222 244.906 261.954 241.896 267.062C241.896 267.062 235.739 279.338 235.729 289.595L292.377 282.971C292.377 282.971 289.941 273.022 279.655 259.786L280.15 245.817L282.15 236.333Z" fill="#455A64"/>
<path d="M250.47 161.509C245.758 163.647 243.867 168.854 243.401 173.626C242.936 178.398 243.401 183.388 241.59 187.862C240.035 191.634 236.838 195.079 237.194 199.119C237.461 202.089 239.709 204.781 240.115 207.781C240.907 213.592 234.739 218.79 235.867 224.611C236.372 227.254 238.402 229.561 240.817 231.076C243.335 232.558 246.029 233.715 248.836 234.521C252.579 235.778 256.756 237.006 260.419 235.699C263.686 234.541 265.914 231.561 269.329 230.7C272.745 229.838 276.022 231.224 279.408 231.294C280.939 231.357 282.467 231.108 283.9 230.564C285.333 230.019 286.64 229.19 287.743 228.126C288.757 227.108 289.457 225.821 289.762 224.417C290.068 223.014 289.965 221.553 289.466 220.206C287.961 216.483 283.318 214.087 282.595 210.187C281.952 206.662 284.823 203.158 283.922 199.673C282.932 195.792 277.715 193.733 276.457 189.922C274.953 185.338 279.764 180.447 277.893 175.963C276.784 173.329 273.616 171.666 272.755 168.963C272.171 167.102 272.804 165.102 272.379 163.211C271.656 159.944 267.973 157.836 264.389 157.093C260.003 156.123 255.414 156.763 251.46 158.895C249.621 159.905 248.049 161.339 246.874 163.078C245.7 164.817 244.958 166.811 244.708 168.894" fill="#263238"/>
<path d="M257.489 158.192C259.645 157.364 261.957 157.019 264.261 157.179C266.565 157.339 268.806 158.001 270.827 159.119C272.849 160.236 274.601 161.783 275.962 163.649C277.323 165.515 278.259 167.657 278.704 169.923C279.427 173.566 278.893 177.497 280.477 180.813C282.189 184.466 286.228 186.971 286.832 190.951C287.436 194.93 284.555 198.296 283.961 202.148C283.338 206.108 285.219 210.196 284.763 214.226C284.537 216.236 283.735 218.139 282.453 219.705C281.17 221.27 279.463 222.431 277.536 223.048C275.609 223.666 273.544 223.713 271.591 223.184C269.638 222.654 267.88 221.572 266.527 220.067" fill="#263238"/>
<path d="M238.501 221.196C238.501 221.196 238.501 221.146 238.441 221.038C238.397 220.878 238.364 220.716 238.342 220.552C238.291 219.91 238.383 219.265 238.609 218.662C238.979 217.724 239.458 216.834 240.035 216.008C240.797 214.953 241.395 213.788 241.807 212.553C242.166 211.029 242.042 209.43 241.451 207.979C240.785 206.291 239.907 204.694 238.837 203.227C237.615 201.573 236.635 199.753 235.927 197.822C235.27 195.662 235.318 193.349 236.065 191.219C236.436 190.147 236.982 189.143 237.679 188.249C238.365 187.412 239.095 186.612 239.867 185.853C240.59 185.136 241.234 184.342 241.787 183.487C242.285 182.675 242.581 181.754 242.649 180.804C242.597 178.989 242.358 177.184 241.936 175.418C241.664 173.805 241.756 172.151 242.203 170.577C242.844 168.301 244.163 166.274 245.985 164.766C246.479 164.367 247.009 164.016 247.569 163.717C247.761 163.6 247.967 163.51 248.183 163.449C247.47 163.902 246.786 164.398 246.133 164.934C244.403 166.457 243.157 168.453 242.55 170.676C242.15 172.195 242.086 173.783 242.362 175.329C242.817 177.131 243.076 178.976 243.134 180.834C243.078 181.885 242.761 182.905 242.213 183.804C241.64 184.692 240.977 185.518 240.233 186.269C239.476 187.016 238.759 187.802 238.085 188.625C237.427 189.477 236.912 190.43 236.56 191.446C235.858 193.462 235.81 195.648 236.422 197.693C237.103 199.577 238.049 201.354 239.233 202.97C240.316 204.479 241.198 206.123 241.857 207.861C242.456 209.404 242.56 211.096 242.154 212.702C241.708 213.967 241.07 215.155 240.263 216.226C239.68 217.024 239.183 217.88 238.778 218.78C238.486 219.55 238.391 220.38 238.501 221.196Z" fill="#263238"/>
<path d="M280.774 230.452C280.774 230.452 281.002 230.214 281.398 229.729C281.947 229.013 282.323 228.179 282.497 227.294C282.777 225.893 282.628 224.441 282.071 223.126C281.737 222.311 281.223 221.583 280.566 220.997C279.817 220.355 278.924 219.903 277.962 219.681C276.861 219.431 275.786 219.072 274.755 218.611C274.17 218.324 273.684 217.87 273.357 217.306C273.031 216.742 272.88 216.094 272.923 215.443C273.129 214.103 273.749 212.86 274.695 211.889C275.606 210.899 276.675 210.028 277.537 208.919C278.015 208.436 278.362 207.838 278.545 207.184C278.729 206.529 278.743 205.839 278.586 205.177C278.19 203.85 276.903 202.969 275.616 202.207C274.193 201.523 272.863 200.661 271.656 199.643C271.032 199.061 270.588 198.312 270.379 197.485C270.191 196.654 270.191 195.791 270.379 194.96C270.745 193.327 271.478 191.871 271.884 190.386C272.138 189.695 272.218 188.951 272.118 188.221C272.018 187.491 271.741 186.797 271.31 186.199C269.399 183.961 265.983 183.605 264.102 181.249C263.231 180.129 262.647 178.814 262.4 177.417C262.154 176.113 262.061 174.784 262.122 173.457C262.221 170.933 262.558 168.636 262.419 166.527C262.421 164.637 261.79 162.801 260.627 161.31C259.694 160.232 258.431 159.491 257.034 159.201C256.151 159.016 255.233 159.127 254.42 159.518C253.866 159.795 253.638 160.053 253.608 160.023C253.658 159.955 253.718 159.894 253.787 159.845C253.958 159.678 254.151 159.535 254.361 159.419C255.183 158.962 256.139 158.808 257.063 158.984C258.532 159.239 259.871 159.982 260.865 161.092C262.105 162.625 262.801 164.527 262.845 166.498C262.887 168.81 262.811 171.123 262.617 173.428C262.57 174.705 262.67 175.984 262.914 177.239C263.146 178.552 263.7 179.787 264.528 180.833C265.484 181.866 266.653 182.68 267.953 183.219C269.387 183.803 270.684 184.675 271.765 185.783C272.284 186.431 272.607 187.214 272.696 188.04C272.766 188.86 272.686 189.685 272.458 190.476C272.022 192.03 271.3 193.446 270.963 195.02C270.746 195.747 270.734 196.52 270.928 197.253C271.122 197.987 271.514 198.653 272.062 199.178C273.235 200.166 274.529 201.001 275.913 201.663C276.595 202.037 277.238 202.478 277.834 202.979C278.441 203.507 278.89 204.192 279.131 204.959C279.378 205.712 279.378 206.524 279.131 207.276C278.869 207.975 278.49 208.624 278.012 209.196C277.121 210.325 276.032 211.176 275.141 212.166C274.254 213.049 273.669 214.189 273.468 215.424C273.425 215.986 273.552 216.548 273.833 217.037C274.114 217.526 274.535 217.919 275.042 218.166C276.039 218.626 277.081 218.985 278.15 219.235C279.162 219.49 280.099 219.982 280.883 220.671C281.569 221.301 282.1 222.08 282.437 222.948C282.993 224.324 283.114 225.837 282.784 227.284C282.584 228.194 282.162 229.041 281.556 229.749C281.325 230.014 281.062 230.25 280.774 230.452Z" fill="#455A64"/>
<path d="M249.331 233.64C249.192 233.401 249.076 233.149 248.985 232.887C248.767 232.383 248.47 231.64 248.123 230.67C247.718 229.487 247.387 228.28 247.133 227.056C246.751 225.436 246.621 223.766 246.747 222.106C246.931 220.049 247.747 218.098 249.084 216.523C249.823 215.7 250.504 214.826 251.123 213.909C251.721 212.933 252.027 211.806 252.004 210.662C251.935 208.286 250.777 205.949 249.49 203.672C248.203 201.396 246.797 198.851 246.638 195.931C246.535 194.464 246.972 193.01 247.866 191.842C248.813 190.857 249.869 189.984 251.014 189.238C252.019 188.495 252.705 187.398 252.935 186.169C253.133 184.971 253.083 183.744 252.786 182.566C252.291 180.21 251.38 178.061 250.965 175.893C250.052 170.957 251.066 165.859 253.796 161.647C254.227 160.982 254.706 160.35 255.232 159.756C255.408 159.541 255.604 159.342 255.816 159.162C255.816 159.162 255.063 160.023 253.984 161.766C252.478 164.238 251.525 167.008 251.192 169.884C250.968 171.864 251.048 173.868 251.43 175.824C251.846 177.923 252.766 180.061 253.301 182.477C253.616 183.722 253.673 185.019 253.469 186.288C253.214 187.644 252.467 188.857 251.371 189.694C250.265 190.422 249.24 191.264 248.311 192.208C247.5 193.268 247.106 194.589 247.203 195.921C247.351 198.673 248.658 201.148 249.975 203.415C251.291 205.682 252.469 208.118 252.529 210.672C252.538 211.913 252.195 213.132 251.539 214.186C250.897 215.118 250.193 216.004 249.43 216.84C248.131 218.334 247.328 220.195 247.133 222.166C246.975 223.798 247.072 225.444 247.42 227.046C247.686 228.268 248.016 229.474 248.41 230.66C248.727 231.591 248.975 232.343 249.163 232.907C249.239 233.146 249.295 233.391 249.331 233.64Z" fill="#455A64"/>
<path d="M327.056 457.122L326.987 455.291L308.415 455.826L308.583 461.865H309.731C314.84 461.993 335.709 462.171 339.095 461.122C342.867 459.984 327.056 457.122 327.056 457.122Z" fill="#46B2C8"/>
<g opacity="0.6">
<path d="M315.275 461.557C314.938 460.085 314.053 458.797 312.8 457.954C311.528 457.073 309.985 456.669 308.444 456.815L308.593 461.627L315.275 461.557Z" fill="white"/>
</g>
<g opacity="0.6">
<path d="M334.788 458.775C334.788 458.775 340.342 460.102 339.679 460.963C339.016 461.825 317.899 462.379 308.583 461.864V461.488L333.214 461.033C333.214 461.033 333.709 458.845 334.788 458.775Z" fill="white"/>
</g>
<path d="M308.306 461.479H308.622H309.543L312.899 461.528C315.741 461.528 319.671 461.528 323.997 461.419C328.323 461.31 332.254 461.122 335.095 460.964L338.451 460.746L339.362 460.667H339.679H339.352H338.441L335.085 460.825C332.244 460.954 328.323 461.112 323.997 461.221C319.671 461.33 315.741 461.37 312.899 461.39H309.543H308.622L308.306 461.479Z" fill="#263238"/>
<path d="M333.224 461.34C333.434 460.252 334.037 459.28 334.917 458.607C334.359 458.807 333.893 459.205 333.61 459.726C333.443 459.956 333.322 460.217 333.256 460.494C333.19 460.771 333.179 461.059 333.224 461.34Z" fill="#263238"/>
<path d="M327.69 458.865C327.739 458.865 327.997 458.597 328.254 458.191C328.512 457.785 328.68 457.439 328.621 457.409C328.561 457.38 328.324 457.686 328.066 458.092C327.809 458.498 327.69 458.835 327.69 458.865Z" fill="#263238"/>
<path d="M326.175 458.172C326.175 458.172 326.502 458.024 326.809 457.756C327.116 457.489 327.334 457.222 327.294 457.182C327.254 457.142 326.967 457.331 326.66 457.598C326.353 457.865 326.126 458.132 326.175 458.172Z" fill="#263238"/>
<path d="M325.175 456.578C325.495 456.68 325.833 456.71 326.165 456.667C326.5 456.7 326.838 456.659 327.155 456.548C326.836 456.446 326.498 456.415 326.165 456.459C325.831 456.427 325.493 456.467 325.175 456.578Z" fill="#263238"/>
<path d="M324.819 455.399C325.159 455.559 325.528 455.65 325.903 455.667C326.278 455.684 326.653 455.626 327.007 455.498C326.641 455.462 326.273 455.462 325.908 455.498C325.549 455.431 325.184 455.398 324.819 455.399Z" fill="#263238"/>
<path d="M328.274 457.38C328.667 457.452 329.069 457.452 329.462 457.38C329.889 457.321 330.309 457.225 330.719 457.093C330.967 457.02 331.206 456.92 331.432 456.796C331.569 456.722 331.673 456.598 331.719 456.449C331.733 456.364 331.722 456.276 331.686 456.197C331.651 456.118 331.594 456.051 331.521 456.004C331.064 455.807 330.556 455.766 330.073 455.885C329.59 456.005 329.16 456.28 328.848 456.667C328.67 456.886 328.545 457.144 328.482 457.419C328.482 457.607 328.482 457.716 328.482 457.716C328.589 457.357 328.764 457.021 328.997 456.726C329.258 456.421 329.601 456.197 329.987 456.083C330.442 455.908 330.947 455.908 331.402 456.083C331.6 456.212 331.531 456.419 331.323 456.538C331.116 456.656 330.897 456.752 330.67 456.825C330.271 456.96 329.864 457.069 329.452 457.152C328.68 457.31 328.274 457.32 328.274 457.38Z" fill="#263238"/>
<path d="M328.581 457.38C328.652 457.266 328.699 457.139 328.72 457.006C328.74 456.874 328.733 456.738 328.7 456.608C328.648 456.319 328.525 456.047 328.343 455.816C328.236 455.651 328.089 455.515 327.916 455.42C327.744 455.325 327.55 455.274 327.353 455.271C327.295 455.282 327.24 455.304 327.19 455.337C327.141 455.369 327.098 455.41 327.065 455.459C327.032 455.508 327.009 455.563 326.997 455.621C326.985 455.679 326.985 455.738 326.997 455.796C327.033 455.972 327.107 456.138 327.215 456.281C327.379 456.525 327.575 456.744 327.799 456.935C327.995 457.128 328.232 457.277 328.492 457.37C328.492 457.37 328.244 457.172 327.908 456.836C327.715 456.636 327.542 456.417 327.393 456.182C327.224 455.955 327.096 455.539 327.393 455.479C327.55 455.493 327.703 455.54 327.841 455.617C327.979 455.694 328.1 455.799 328.195 455.925C328.364 456.134 328.485 456.377 328.551 456.638C328.583 456.884 328.593 457.132 328.581 457.38Z" fill="#263238"/>
<path d="M308.543 456.766C308.543 456.766 309.068 456.707 309.91 456.766C310.975 456.861 311.998 457.229 312.88 457.836C313.752 458.432 314.438 459.263 314.86 460.231C315.01 460.63 315.139 461.036 315.246 461.449C315.266 461.334 315.266 461.217 315.246 461.103C315.205 460.788 315.128 460.479 315.018 460.182C314.634 459.159 313.942 458.281 313.038 457.667C312.112 457.027 311.024 456.663 309.9 456.618C309.569 456.611 309.238 456.627 308.91 456.667C308.783 456.678 308.659 456.712 308.543 456.766Z" fill="#263238"/>
<path d="M317.552 459.815C318.442 459.987 319.35 460.047 320.255 459.993C321.163 460.012 322.071 459.922 322.958 459.726C322.958 459.666 321.74 459.726 320.255 459.785C318.77 459.845 317.562 459.755 317.552 459.815Z" fill="#263238"/>
<path d="M313.929 459.904C313.929 459.954 314.038 460.142 314.166 460.399C314.295 460.656 314.374 460.874 314.434 460.874C314.493 460.874 314.523 460.597 314.364 460.3C314.206 460.003 313.968 459.864 313.929 459.904Z" fill="#263238"/>
<path d="M312.513 458.37C312.513 458.42 312.602 458.588 312.79 458.766C312.978 458.944 313.186 459.053 313.226 459.004C313.266 458.954 313.147 458.786 312.949 458.618C312.751 458.449 312.563 458.37 312.513 458.37Z" fill="#263238"/>
<path d="M310.543 457.697C310.543 457.746 310.8 457.746 311.078 457.825C311.355 457.905 311.553 458.033 311.592 457.994C311.632 457.954 311.484 457.717 311.137 457.627C310.791 457.538 310.523 457.637 310.543 457.697Z" fill="#263238"/>
<path d="M309.137 457.38C309.137 457.429 309.226 457.518 309.385 457.568C309.543 457.617 309.682 457.617 309.701 457.568C309.721 457.518 309.612 457.429 309.454 457.37C309.296 457.31 309.157 457.38 309.137 457.38Z" fill="#263238"/>
<path d="M407.721 437.679C410.549 436.354 413.728 435.972 416.79 436.59C418.46 436.735 420.034 437.431 421.265 438.57C422.383 439.808 422.601 441.976 421.314 443.035C420.487 443.598 419.489 443.853 418.493 443.758C416.097 443.758 413.444 443.302 411.563 444.748C410.474 445.569 409.751 446.936 408.444 447.341C407.79 447.494 407.105 447.428 406.492 447.155C405.879 446.881 405.372 446.415 405.048 445.827C404.427 444.627 404.289 443.235 404.662 441.936C404.812 441.04 405.166 440.19 405.697 439.452C406.227 438.714 406.92 438.107 407.721 437.679Z" fill="#81DD6A"/>
<path opacity="0.2" d="M407.721 437.679C410.549 436.354 413.728 435.972 416.79 436.59C418.46 436.735 420.034 437.431 421.265 438.57C422.383 439.808 422.601 441.976 421.314 443.035C420.487 443.598 419.489 443.853 418.493 443.758C416.097 443.758 413.444 443.302 411.563 444.748C410.474 445.569 409.751 446.936 408.444 447.341C407.79 447.494 407.105 447.428 406.492 447.155C405.879 446.881 405.372 446.415 405.048 445.827C404.427 444.627 404.289 443.235 404.662 441.936C404.812 441.04 405.166 440.19 405.697 439.452C406.227 438.714 406.92 438.107 407.721 437.679Z" fill="white"/>
<path d="M401.405 425.482C403.098 427.898 406.355 427.096 407.89 425.63C409.424 424.165 410.048 422.027 410.632 419.997C411.969 415.364 413.315 410.493 412.325 405.771C412.084 404.338 411.454 402.999 410.504 401.9C410.023 401.359 409.409 400.953 408.723 400.724C408.037 400.494 407.302 400.449 406.593 400.593C404.94 401.029 403.91 402.653 403.168 404.187C400.98 408.738 399.836 413.72 399.821 418.77C399.663 421.122 400.215 423.467 401.405 425.502" fill="#81DD6A"/>
<path opacity="0.3" d="M401.405 425.482C403.098 427.898 406.355 427.096 407.89 425.63C409.424 424.165 410.048 422.027 410.632 419.997C411.969 415.364 413.315 410.493 412.325 405.771C412.084 404.338 411.454 402.999 410.504 401.9C410.023 401.359 409.409 400.953 408.723 400.724C408.037 400.494 407.302 400.449 406.593 400.593C404.94 401.029 403.91 402.653 403.168 404.187C400.98 408.738 399.836 413.72 399.821 418.77C399.663 421.122 400.215 423.467 401.405 425.502" fill="black"/>
<path d="M396.782 428.937C397.648 427.806 398.224 426.481 398.462 425.077C398.701 423.673 398.593 422.232 398.148 420.879C397.223 418.173 395.568 415.774 393.367 413.949C390.873 411.728 387.971 410.013 384.823 408.9C383.603 408.414 382.294 408.191 380.982 408.246C380.323 408.287 379.684 408.489 379.121 408.834C378.558 409.179 378.089 409.657 377.754 410.226C376.853 411.939 377.754 414.018 378.645 415.721C380.29 418.712 382.167 421.568 384.259 424.265C385.942 426.433 387.872 428.571 390.436 429.551C393 430.531 395.663 430.422 397.03 428.64" fill="#81DD6A"/>
<path d="M401.297 461.795C401.381 461.435 401.431 461.067 401.445 460.697L401.742 457.727C401.888 456.258 402.11 454.797 402.406 453.351C402.8 451.589 403.333 449.861 403.999 448.183C404.652 446.504 405.542 444.927 406.643 443.5C407.536 442.341 408.676 441.394 409.979 440.728C410.861 440.293 411.807 439.999 412.781 439.857C413.148 439.844 413.514 439.791 413.87 439.699C413.501 439.658 413.129 439.658 412.761 439.699C411.733 439.773 410.727 440.031 409.791 440.461C408.42 441.113 407.218 442.072 406.276 443.263C405.133 444.708 404.212 446.317 403.544 448.034C402.865 449.734 402.335 451.49 401.96 453.281C401.678 454.747 401.483 456.228 401.376 457.717C401.287 458.984 401.247 460.004 401.227 460.687C401.213 461.058 401.236 461.429 401.297 461.795Z" fill="#263238"/>
<path d="M401.504 459.498C401.517 459.327 401.517 459.154 401.504 458.983C401.504 458.607 401.504 458.122 401.504 457.538C401.504 456.28 401.504 454.459 401.573 452.202C401.682 447.707 402.069 442.856 402.821 436.025C403.524 429.61 404.474 422.165 405.484 417.274C405.702 416.175 405.91 415.176 406.118 414.304C406.325 413.433 406.484 412.681 406.642 412.067C406.801 411.453 406.89 411.027 406.979 410.661C407.023 410.496 407.053 410.327 407.068 410.156C406.988 410.306 406.929 410.466 406.89 410.631L406.474 412.027C406.286 412.631 406.088 413.374 405.87 414.245C405.652 415.116 405.405 416.106 405.167 417.215C403.936 422.96 403.007 428.766 402.385 434.609C401.643 441.45 401.296 447.687 401.267 452.202C401.267 454.459 401.267 456.28 401.346 457.538C401.346 458.132 401.415 458.607 401.435 458.993C401.436 459.164 401.459 459.333 401.504 459.498Z" fill="#263238"/>
<path d="M401.534 447.48C401.569 446.976 401.569 446.47 401.534 445.965C401.475 444.975 401.336 443.579 401.069 441.857C400.731 439.838 400.285 437.838 399.732 435.867C399.077 433.448 398.24 431.082 397.228 428.789C395.491 424.562 393.002 420.684 389.882 417.344C389.338 416.774 388.759 416.239 388.149 415.741C387.882 415.513 387.654 415.295 387.417 415.117L386.743 414.652C386.339 414.349 385.912 414.077 385.466 413.84C386.936 414.995 388.332 416.241 389.644 417.572C392.666 420.934 395.09 424.788 396.812 428.967C397.807 431.248 398.647 433.593 399.326 435.986C399.905 437.94 400.381 439.923 400.752 441.926C401.069 443.639 401.247 445.035 401.356 445.995C401.377 446.494 401.436 446.99 401.534 447.48Z" fill="#263238"/>
</svg>
